<?xml version="1.0" encoding="UTF-8" standalone="no"?><!DOCTYPE svg PUBLIC "-//W3C//DTD SVG 1.1//EN" "http://www.w3.org/Graphics/SVG/1.1/DTD/svg11.dtd"><svg width="100%" height="100%" viewBox="0 0 2375 2375" version="1.1" xmlns="http://www.w3.org/2000/svg" xmlns:xlink="http://www.w3.org/1999/xlink" xml:space="preserve" xmlns:serif="http://www.serif.com/" style="fill-rule:evenodd;clip-rule:evenodd;stroke-miterlimit:10;"><path id="Circle" d="M1187.54,6.375c-652.417,0 -1181.29,528.75 -1181.29,1181.12c0,652.375 528.875,1181.38 1181.29,1181.38c652.416,0 1181.21,-529.167 1181.21,-1181.38c0,-652.208 -528.833,-1181.12 -1181.21,-1181.12Zm-0.334,2105.29c-510.375,-0.125 -924.041,-413.625 -924.041,-924.167c0,-510.542 413.666,-924.042 924,-924.042c510.333,0 924.041,413.75 924.041,924.042c0,510.292 -413.708,924.042 -924.041,924.042l0.041,0.125Z" style="fill:#fff;fill-rule:nonzero;stroke:#231c1e;stroke-width:12.5px;"/><g id="Body"><path d="M1010.92,1457.04c0,0 -382.209,-63.167 -375.167,507.666l1151.25,0c0,0 147.625,-485.416 -254.167,-493.625l-184.125,-32.541l-290.333,-10.792c0,0 -19.792,39.833 -47.458,29.292Z" style="fill:#fff;fill-rule:nonzero;stroke:#000;stroke-width:8.33px;"/><path d="M865.625,1964.71c-37.083,-161.75 32.417,-251.375 32.417,-251.375c49.208,-105.5 32.375,-249.625 32.375,-249.625c0,0 54.666,-14.166 93.208,-5.125c0,0 24.167,-8.583 34.875,-30.833c10.708,-22.25 93.25,125 141.667,124.542c48.416,-0.459 149.291,-103.459 149.291,-103.459l183.334,22.25c0,0 -16.667,144.167 32.375,249.625c0,0 75.875,75.584 38.833,237.292l-738.375,6.708Z" style="fill-rule:nonzero;stroke:#000;stroke-width:8.33px;"/><path d="M1412.12,1864.25c0,-0.042 0,-0.083 0,-0.125c0,-108.392 -89.192,-197.583 -197.583,-197.583c-108.392,0 -197.584,89.191 -197.584,197.583c0,108.392 89.192,197.583 197.584,197.583c0.029,0 0.054,0 0.083,0c108.329,0 197.479,-89.129 197.5,-197.458Z" style="fill:#fff;fill-rule:nonzero;stroke:#000;stroke-width:8.33px;"/></g><g id="Hair"><path d="M1051.75,1397.25c0,0 -330.458,-239.042 -246.083,-597.625c0,0 351.541,-348.083 759.375,-24.625c0,0 157.041,196.875 -51.542,548.417c0,0 7.75,84.375 -19.583,147.666c0,0 24.625,56.25 -18.917,98.459c0,0 39.083,28.125 -19.833,112.5c0,0 37.791,28.125 0,77.333c0,0 37.791,21.083 0,49.208c0,0 41.666,21.084 -5.167,84.375c0,0 -41.667,-44.25 -12.833,-84.375c0,0 -39.125,-21.083 -18.042,-56.25c0,0 -28.125,-28.125 -7,-77.333c0,0 -32.542,-42.208 -12.75,-63.292c0,0 -78.667,-42.166 -22.417,-140.625c0,0 -63.291,-28.125 -35.166,-140.625c0,0 209.791,-281.25 171.708,-562.5c0,0 -586.542,-7.041 -600.625,0c-14.083,7.042 -42.167,414.834 147.667,562.5l-8.792,66.792Z" style="fill:#fff;fill-rule:nonzero;stroke:#000;stroke-width:8.33px;"/><path d="M1419.12,1752.21c0,0 -0.292,6.459 14.5,11.125c0,0 4.667,8.792 22.625,-5.541" style="fill:#ffe306;fill-rule:nonzero;stroke:#000;stroke-width:8.33px;"/><path d="M1376.96,1471.08c0,0 43.667,41.667 69.417,55.667c25.75,14 24.5,43.375 24.5,43.375" style="fill:#fff;fill-rule:nonzero;"/><path d="M1376.96,1471.08c9.75,6.834 19.125,14 28.417,21.209c9.292,7.208 18.542,14.375 28,21.083c4.592,3.442 9.363,6.642 14.292,9.583c5.571,3.142 10.437,7.396 14.291,12.5c7.396,9.938 10.6,22.392 8.917,34.667c-1.533,-11.367 -6.408,-22.025 -14,-30.625c-3.775,-3.983 -8.233,-7.258 -13.167,-9.667c-5.3,-2.912 -10.42,-6.141 -15.333,-9.666c-9.583,-7.075 -18.712,-14.742 -27.333,-22.959c-8.621,-8.141 -16.667,-16.871 -24.084,-26.125Z" style="fill-rule:nonzero;"/><path d="M1477.46,1571.83c0,0 -9.708,28.75 -45.833,50.334" style="fill:#ffe306;fill-rule:nonzero;stroke:#000;stroke-width:8.33px;"/><path d="M1455.17,1464.04c-6.125,-126.542 59.083,-126.417 59.083,-126.417" style="fill:#fff;fill-rule:nonzero;"/><path d="M1455.17,1464.04c-2.313,-12.709 -3.234,-25.634 -2.75,-38.542c0.333,-13.1 2.45,-26.096 6.291,-38.625c3.788,-12.85 10.621,-24.6 19.917,-34.25c9.217,-9.804 22.171,-15.258 35.625,-15c-12.171,2.812 -23.038,9.658 -30.833,19.417c-7.588,9.616 -13.246,20.612 -16.667,32.375c-3.667,11.937 -6.262,24.183 -7.75,36.583c-1.792,12.542 -2.708,25.208 -3.833,38.042Z" style="fill-rule:nonzero;"/><path d="M1493.92,1471.08c0,0 -24.792,39.25 -46.334,53.334" style="fill:#ffe306;fill-rule:nonzero;stroke:#000;stroke-width:8.33px;"/><path d="M1415.54,1372.67c0,0 37.166,35.125 41.458,84.375" style="fill:#fff;fill-rule:nonzero;"/><path d="M1415.54,1372.67c6.812,4.525 12.896,10.058 18.041,16.416c5.263,6.28 9.805,13.13 13.542,20.417c3.75,7.321 6.554,15.092 8.333,23.125c1.934,7.988 2.442,16.254 1.5,24.417c-2.416,-7.792 -4.833,-15.25 -7.708,-22.542c-2.875,-7.292 -6.083,-14.292 -9.583,-21.208c-7.3,-13.967 -15.354,-27.529 -24.125,-40.625Z" style="fill-rule:nonzero;"/><path d="M1396.96,1610.29c0,0 48.25,3.166 55.292,43.041" style="fill:#fff;fill-rule:nonzero;"/><path d="M1396.96,1610.29c6.479,-1.029 13.104,-0.717 19.459,0.916c6.495,1.484 12.658,4.167 18.166,7.917c5.655,3.833 10.313,8.963 13.584,14.958c3.25,5.867 4.7,12.563 4.166,19.25c-2.529,-5.591 -5.733,-10.854 -9.541,-15.666c-3.721,-4.463 -8.038,-8.388 -12.834,-11.667c-10.316,-6.567 -21.4,-11.842 -33,-15.708Z" style="fill-rule:nonzero;"/><path d="M1500.04,1118.5c0,0 -15.667,157.667 -50,178.75" style="fill:#fff;fill-rule:nonzero;"/><path d="M1500.04,1118.5c-0.034,15.796 -1.005,31.571 -2.917,47.25c-1.708,15.667 -4.167,31.292 -7.5,46.75c-3.217,15.583 -7.588,30.904 -13.083,45.833c-2.779,7.5 -6.196,14.746 -10.209,21.667c-3.716,7.179 -9.358,13.179 -16.291,17.333c5.595,-5.35 9.875,-11.925 12.5,-19.208c2.958,-7.146 5.516,-14.446 7.666,-21.875c4.167,-14.917 7.875,-30.125 11.084,-45.375c3.208,-15.25 6.25,-30.625 9.291,-46.042c3.042,-15.416 6.042,-30.875 9.459,-46.333Z" style="fill-rule:nonzero;"/><path d="M1455.17,809.75c0,0 72.541,147.167 73.833,188.042c1.292,40.875 19.792,116.041 -40.875,275.541" style="fill:#fff;fill-rule:nonzero;"/><path d="M1455.17,809.75c19.083,35.583 36.958,71.833 52.791,109.083c8.221,18.63 15.317,37.734 21.25,57.209c1.467,4.991 2.609,10.071 3.417,15.208c0.396,2.638 0.633,5.292 0.708,7.958l0.417,7.459c0.792,9.958 1.792,20.041 2.417,30.208c1.262,20.338 1.029,40.738 -0.709,61.042c-1.795,20.25 -4.912,40.362 -9.333,60.208c-8.975,39.496 -21.629,78.067 -37.792,115.208c13.059,-38.145 23.555,-77.12 31.417,-116.666c7.779,-39.296 10.496,-79.429 8.083,-119.417c-0.541,-10 -1.458,-20 -2.166,-30.167l-0.417,-7.666c-0.042,-2.384 -0.237,-4.767 -0.583,-7.125c-0.763,-4.83 -1.779,-9.613 -3.042,-14.334c-5.492,-19.258 -11.987,-38.212 -19.458,-56.791c-7.334,-18.75 -14.959,-37.405 -22.875,-55.959c-7.917,-18.5 -16.084,-36.916 -24.125,-55.458Z" style="fill-rule:nonzero;"/><path d="M826.583,925.167c0,0 -9,61.541 6.834,86.125" style="fill:#fff;fill-rule:nonzero;"/><path d="M826.583,925.167c1.375,14.875 1.209,29.166 1.709,43.625c0.25,7.166 0.458,14.291 1.125,21.333c0.558,7.196 1.958,14.296 4.166,21.167c-5.179,-5.629 -8.775,-12.529 -10.416,-20c-1.859,-7.275 -2.879,-14.742 -3.042,-22.25c-0.183,-7.442 0.263,-14.884 1.333,-22.25c0.88,-7.379 2.6,-14.634 5.125,-21.625Z" style="fill-rule:nonzero;"/><path d="M851.375,1090.46l28.458,67.459" style="fill:#ffe306;fill-rule:nonzero;"/><path d="M851.375,1090.46c3.817,4.884 7.192,10.1 10.083,15.584c2.946,5.416 5.617,10.979 8,16.666c2.388,5.621 4.471,11.367 6.25,17.209c1.95,5.9 3.346,11.966 4.167,18.125c-3.825,-4.892 -7.2,-10.121 -10.083,-15.625c-2.959,-5.405 -5.617,-10.967 -7.959,-16.667c-2.387,-5.625 -4.487,-11.371 -6.291,-17.208c-1.904,-5.896 -3.3,-11.946 -4.167,-18.084Z" style="fill-rule:nonzero;"/><path d="M927.833,1170.5c0,0 21.125,116.667 83.084,129.542" style="fill:#fff;fill-rule:nonzero;"/><path d="M927.833,1170.5c4.167,12.875 8.709,25.5 13.5,37.958c4.675,12.409 10.059,24.542 16.125,36.334c5.85,11.733 13.084,22.729 21.542,32.75c8.5,10.15 19.5,17.908 31.917,22.5c-13.896,-1.621 -26.817,-7.979 -36.584,-18c-9.866,-9.696 -18.062,-20.963 -24.25,-33.334c-6.216,-12.183 -11.212,-24.954 -14.916,-38.125c-3.838,-13.066 -6.296,-26.504 -7.334,-40.083Z" style="fill-rule:nonzero;"/><path d="M865.625,960.875c0,0 3.333,134.042 62.208,182.375" style="fill:#fff;fill-rule:nonzero;"/><path d="M865.625,960.875c2.333,16.375 4.958,32.542 7.958,48.625c3,16.083 6.5,32 10.959,47.625c4.175,15.704 9.654,31.038 16.375,45.833c6.633,14.892 15.733,28.555 26.916,40.417c-13.708,-9.742 -24.92,-22.596 -32.708,-37.5c-7.979,-14.717 -14.229,-30.304 -18.625,-46.458c-4.371,-16.025 -7.487,-32.367 -9.333,-48.875c-1.975,-16.479 -2.492,-33.1 -1.542,-49.667Z" style="fill-rule:nonzero;"/><path d="M1513.46,809.75l0,71.292" style="fill:#ffe306;fill-rule:nonzero;stroke:#000;stroke-width:4.17px;"/><path d="M1563.12,854.375c0,0 65.208,316.333 -56.083,442.875" style="fill:#fff;fill-rule:nonzero;"/><path d="M1563.12,854.375c8.683,37.475 14.713,75.513 18.042,113.833c3.604,38.392 4.396,76.992 2.375,115.5c-1.842,38.742 -8.304,77.125 -19.25,114.334c-5.713,18.466 -13.275,36.308 -22.584,53.25c-9.266,16.925 -21.008,32.37 -34.833,45.833c12.525,-14.454 23.021,-30.546 31.208,-47.833c8.204,-17.171 14.825,-35.05 19.792,-53.417c4.975,-18.371 8.817,-37.033 11.5,-55.875c2.792,-18.875 4.625,-37.833 5.667,-56.875c2.041,-38.158 1.875,-76.404 -0.5,-114.542c-1.167,-19.125 -2.625,-38.208 -4.584,-57.25c-1.958,-19.041 -4.083,-37.958 -6.833,-56.958Z" style="fill-rule:nonzero;"/><path d="M1475.04,1109.54c0,0 -16.334,166.291 -75.625,198.083" style="fill:#fff;fill-rule:nonzero;"/><path d="M1475.04,1109.54c-0.388,18.237 -2.075,36.421 -5.042,54.416c-2.808,18.059 -6.788,35.917 -11.917,53.459c-5.071,17.708 -12.054,34.808 -20.833,51c-4.454,8.125 -9.775,15.737 -15.875,22.708c-6.008,7.1 -13.504,12.792 -21.958,16.667c7.358,-5.184 13.725,-11.646 18.791,-19.084c5.088,-7.312 9.534,-15.05 13.292,-23.125c7.454,-16.35 13.654,-33.25 18.542,-50.541c5.208,-17.209 9.458,-34.709 13.583,-52.334c4.125,-17.625 7.708,-35.5 11.417,-53.166Z" style="fill-rule:nonzero;"/><path d="M1412.12,1675c0,0 15.417,35.083 43.042,11.625" style="fill:#fff;fill-rule:nonzero;stroke:#000;stroke-width:8.33px;"/></g><g id="Face"><path d="M1058.38,1324.79l0,102.958c0,0 101.083,140.625 150.292,123.042c49.208,-17.584 140.625,-101.959 140.625,-101.959l-10.584,-124.041" style="fill:#fff;fill-rule:nonzero;stroke:#000;stroke-width:8.33px;"/><path d="M898.25,798.542c0,0 -14.708,542.25 298.5,595.833l3.458,-0.792c313.209,-53.625 316.5,-595.041 316.5,-595.041" style="fill:#fff;stroke:#000;stroke-width:8.33px;"/><path d="M945.417,889.25c0,0 17.125,152.292 192.458,108.792l3.292,-2.834c-12.542,-39.221 -41.129,-71.354 -78.625,-88.375c-37.496,-17.021 -45.834,-35.583 -135.584,-23.083" style="fill:#fff;stroke:#000;stroke-width:12.5px;"/><path d="M1012.54,886.292c0,0 -13.334,49.541 34.791,69.333c48.125,19.792 54.167,-22.667 54.167,-22.667l-42.333,-28.333l-46.625,-18.333" style="fill-rule:nonzero;stroke:#000;stroke-width:4.17px;"/><path d="M1449.71,889.25c0,0 -17.166,152.292 -192.5,108.75l-3.291,-2.833c12.562,-39.217 41.162,-71.33 78.666,-88.334c37.504,-17.004 45.834,-35.583 135.542,-23.083" style="fill:#fff;stroke:#000;stroke-width:12.5px;"/><path d="M1382.5,886.292c0,0 13.375,49.541 -34.75,69.333c-48.125,19.792 -54.167,-22.667 -54.167,-22.667l42.292,-28.333l46.708,-18.333" style="fill:#010101;fill-rule:nonzero;stroke:#000;stroke-width:4.17px;"/><g id="Freckles"><path d="M1336.75,1098.04c0,0.012 0,0.029 0,0.041c0,1.463 -1.204,2.667 -2.667,2.667c-1.462,0 -2.666,-1.204 -2.666,-2.667c0,-1.462 1.204,-2.666 2.666,-2.666c0.013,0 0.03,0 0.042,0c1.442,0 2.625,1.183 2.625,2.625Z" style="fill-rule:nonzero;"/><path d="M1359.38,1123.71c0,1.442 -1.183,2.625 -2.625,2.625c-1.442,0 -2.625,-1.183 -2.625,-2.625c0,-1.441 1.183,-2.625 2.625,-2.625c1.442,0 2.625,1.184 2.625,2.625Z" style="fill-rule:nonzero;"/><path d="M1399.38,1105.25c0,0.013 0,0.029 0,0.042c0,1.462 -1.204,2.666 -2.667,2.666c-1.462,0 -2.666,-1.204 -2.666,-2.666c0,-1.463 1.204,-2.667 2.666,-2.667c0.013,0 0.03,0 0.042,0c1.442,0 2.625,1.183 2.625,2.625Z" style="fill-rule:nonzero;"/><path d="M1368.62,1081.08c-0.021,1.446 -1.221,2.625 -2.667,2.625c-1.441,0 -2.625,-1.183 -2.625,-2.625c0,-1.441 1.184,-2.625 2.625,-2.625c1.446,0 2.646,1.179 2.667,2.625Z" style="fill-rule:nonzero;"/><circle cx="1405.88" cy="1078.46" r="2.625"/><path d="M1006.29,1098.04c-0.021,1.446 -1.221,2.625 -2.667,2.625c-1.442,0 -2.625,-1.184 -2.625,-2.625c0,-1.442 1.183,-2.625 2.625,-2.625c1.446,0 2.646,1.179 2.667,2.625Z" style="fill-rule:nonzero;"/><path d="M1028.92,1123.71c0,0.013 0,0.03 0,0.042c0,1.463 -1.204,2.667 -2.667,2.667c-1.462,0 -2.667,-1.204 -2.667,-2.667c0,-1.462 1.205,-2.667 2.667,-2.667c1.446,0 2.646,1.179 2.667,2.625Z" style="fill-rule:nonzero;"/><path d="M1068.92,1105.25c-0.021,1.446 -1.221,2.625 -2.667,2.625c-1.442,0 -2.625,-1.183 -2.625,-2.625c0,-1.442 1.183,-2.625 2.625,-2.625c1.446,0 2.646,1.179 2.667,2.625Z" style="fill-rule:nonzero;"/><path d="M1038.12,1081.08c0,1.442 -1.183,2.625 -2.625,2.625c-1.442,0 -2.625,-1.183 -2.625,-2.625c0,-1.441 1.183,-2.625 2.625,-2.625c1.442,0 2.625,1.184 2.625,2.625Z" style="fill-rule:nonzero;"/><path d="M1078.04,1078.46c-0.021,1.425 -1.2,2.584 -2.625,2.584c-1.442,0 -2.625,-1.184 -2.625,-2.625c0,-1.442 1.183,-2.625 2.625,-2.625c1.441,0 2.625,1.183 2.625,2.625c0,0.012 0,0.029 0,0.041Z" style="fill-rule:nonzero;"/></g><path d="M1128.21,1143.25c0,0 -34.25,26.625 5.292,34.417" style="fill:#fff;stroke:#000;stroke-width:8.33px;"/><path d="M1257.54,1245.08l1.791,-0.708c0,0 -58.333,120.042 -144.291,7.5l9.208,0" style="fill:#fff;fill-rule:nonzero;stroke:#000;stroke-width:8.33px;"/><path d="M1117.5,1251.29l0.458,-0.25l26.959,-12.5c3.495,-1.671 7.516,-1.88 11.166,-0.584c6.375,2.125 21.167,8.334 21.167,8.334c7.758,3.012 16.367,3.012 24.125,0c13.792,-4.959 23.667,-8.917 23.667,-8.917c3.483,-1.346 7.35,-1.346 10.833,0c5.875,2.208 17.208,7.5 17.208,7.5l2.834,1.417l1.625,0.666c-43.654,22.313 -95.092,23.905 -140.042,4.334Z" style="fill:#fff;fill-rule:nonzero;stroke:#000;stroke-width:8.33px;"/><path d="M1255.92,1246.12c0,0 16.666,-3.25 24.666,-12.917" style="fill:#fff;stroke:#000;stroke-width:4.17px;"/><path d="M1272.92,1219.67c0,0 0,17.083 20.166,20" style="fill:#fff;stroke:#000;stroke-width:4.17px;"/><path d="M1146.67,932.333c0,0 -102.834,-94.916 -147.625,-92.291c0,0 -31.667,-18.459 -71.209,7.916l0,-7.916c39.355,-15.35 83.409,-13.446 121.292,5.25c63.292,31.666 97.542,60.666 97.542,60.666c0,0 13.208,10.542 10.541,18.459c-1.5,4.579 -5.725,7.754 -10.541,7.916Z" style="fill-rule:nonzero;"/><path d="M1249,932.333c0,0 102.833,-94.916 147.625,-92.291c0,0 31.667,-18.459 71.208,7.916l0,-7.916c-39.354,-15.35 -83.408,-13.446 -121.291,5.25c-63.292,31.666 -97.542,60.666 -97.542,60.666c0,0 -13.208,10.542 -10.583,18.459c1.525,4.579 5.758,7.746 10.583,7.916Z" style="fill-rule:nonzero;"/><path d="M1227.08,1025.92c0,0 -15.791,68.541 -5.25,84.375c10.542,15.833 21.084,26.375 23.709,38.25c2.625,11.875 5.291,22.666 -11.834,29.166c0,0 -17.166,-6.708 -15.833,-14.625c0,0 -43.5,26.375 -48.792,17.125c0,0 -16.916,1.334 -36.666,-23.708" style="fill:#fff;stroke:#000;stroke-width:8.33px;"/></g><g id="Helmet"><path d="M1575.67,775c0,0 0,-2.042 0,-5.875c0,-51 -13.625,-418.333 -382.834,-418.333c-396.75,0 -388.375,440.333 -388.375,440.333c0,0 513,51.833 771.25,-18.083" style="fill:#fff;fill-rule:nonzero;stroke:#000;stroke-width:8.33px;"/><path d="M804.5,772.667c0,0 -24.625,-7.042 -21.083,17.541c0,0 36.291,53.334 406.75,46.917c371.5,-6.5 342.083,-41.667 412.5,-65.417c0,0 8.333,-10.333 -16.417,-13.833c-24.75,-3.5 -244.333,62.5 -396.042,49.333c-0.125,0 -145.916,9.334 -385.708,-34.541Z" style="fill-rule:nonzero;"/><path d="M812.667,791.125l31.666,0l71.875,228.917l30.792,110.583l-134.333,-339.5Z" style="fill-rule:nonzero;"/><path d="M1586.12,769.125l-35.167,10.542l-66.458,253.166l-30.625,110.417l132.25,-374.125Z" style="fill-rule:nonzero;"/><path d="M1496.96,497.042l-3.541,47.25l-68.375,7.916l51.375,61.959l-15.334,130.5l98.125,-104.417c0,0 -37.5,-125.833 -62.083,-143.208" style="fill:#fff;fill-rule:nonzero;stroke:#000;stroke-width:4.17px;"/><path d="M906.625,475.875l-11.75,75l93.625,14.5l-87.042,59.333l-1.416,112.042l-71.459,-106.833c0,0 44.792,-131.5 77.917,-154.167" style="fill:#fff;fill-rule:nonzero;stroke:#000;stroke-width:4.17px;"/><path d="M1148.21,526.75c0,16.417 -16.166,29.708 -36.125,29.708c-19.958,0 -36.166,-13.291 -36.166,-29.708c0,-16.417 16.208,-29.708 36.166,-29.708c19.959,0 36.125,13.5 36.125,29.708Z" style="fill-rule:nonzero;stroke:#000;stroke-width:4.17px;"/><path d="M1324,526.75c0,16.417 -16.167,29.708 -36.125,29.708c-19.958,0 -36.167,-13.291 -36.167,-29.708c0,-16.417 16.167,-29.708 36.167,-29.708c20,0 36.125,13.5 36.125,29.708Z" style="fill-rule:nonzero;stroke:#000;stroke-width:4.17px;"/></g><g id="Plate_copy"><rect x="152.792" y="1852.67" width="2100" height="418.125" style="fill:#fff;stroke:#000;stroke-width:16.67px;"/><path d="M1982.33,1954.25c0,0.013 0,0.029 0,0.042c0,13.579 -11.17,24.75 -24.75,24.75c-13.579,0 -24.75,-11.171 -24.75,-24.75c0,-13.58 11.171,-24.75 24.75,-24.75c0.013,0 0.03,0 0.042,0c13.546,0.021 24.688,11.162 24.708,24.708Z" style="fill:none;stroke:#000;stroke-width:8.33px;"/><text x="600.5px" y="2019.54px" style="font-family:'Avillar';font-size:161.708px;stroke:#000;stroke-width:4.17px;">IRON MOUNTAIN</text><g><text x="625.796px" y="2200.08px" style="font-family:'LuckyRacer', 'Lucky Racer';font-size:161.708px;stroke:#000;stroke-width:4.17px;">R</text><text x="735.692px" y="2200.08px" style="font-family:'LuckyRacer', 'Lucky Racer';font-size:161.708px;stroke:#000;stroke-width:4.17px;">OLLER GIRLS</text></g><path d="M454.542,1958c0,0.013 0,0.029 0,0.042c0,13.579 -11.171,24.75 -24.75,24.75c-13.579,0 -24.75,-11.171 -24.75,-24.75c0,-13.579 11.171,-24.75 24.75,-24.75c13.562,0 24.729,11.146 24.75,24.708Z" style="fill:none;stroke:#000;stroke-width:8.33px;"/></g><path id="path1935" d="M655.583,1773.33c-7.625,-2.375 -1.426,-2.126 -3.51,-7.376c-2.083,-5.25 5.934,-9.204 -1.008,-8.91c8.975,-8.892 11.21,-16.368 19.227,-26.13c13.291,-15.25 25.916,-29.625 28,-31.959c2.833,-3.166 3.666,-4.416 3.291,-5c-1,-1.583 -25.256,-13.875 -26.256,-14.291c-1,-0.417 12.26,-23.601 10.427,-21.517c-5,5 41.163,38.808 74.121,67.683l28.458,25c1.388,1.471 3.1,2.6 5,3.292c1.084,0 1.125,0 0.959,2.625c0.008,3.529 -1.334,6.929 -3.75,9.5c-2.763,1.633 -5.821,2.696 -9,3.125l-2.292,0.417l-32.042,-31.5c-17.666,-17.292 -32.208,-31.417 -32.416,-31.292c-0.209,0.125 -11.875,14.458 -26,31.958c-14.125,17.5 -26.459,32.667 -27.417,33.709l-1.75,1.916l-4.042,-1.25Zm63.542,-85.458l-6.583,-5.583l17.166,-19.584c14.459,-16.666 17.125,-19.791 17.042,-20.833c-0.083,-1.042 -1.917,-3.042 -13.375,-12.875c-4.583,-3.675 -8.937,-7.629 -13.042,-11.833c0.334,-0.35 0.809,-0.534 1.292,-0.5c3.525,-2.55 6.729,-5.517 9.542,-8.834c2.862,-3.125 5.891,-6.087 9.083,-8.875c0.333,0 6,4.875 12.5,10.834c12.5,11.333 13.542,11.916 15.292,9.791c0.404,-0.545 1,-0.92 1.666,-1.041c1.659,0.729 3.192,1.712 4.542,2.916c1.508,1.384 3.3,2.421 5.25,3.042l1.5,0l-1.583,1.958c-0.842,0.992 -1.413,2.184 -1.667,3.459c0,1.291 0.417,1.916 4.167,4.958c1.5,1.325 3.15,2.471 4.916,3.417c0.5,0 25.709,43.041 25.459,43.416c-0.25,0.375 -9.042,-4.166 -19.959,-9.583l-19.791,-9.75l-5.834,-5.75c-2.083,-1.983 -4.266,-3.862 -6.541,-5.625c-2.275,-1.762 -8,9.583 -17.459,21.25c-9.458,11.667 -17.166,21.208 -17.208,21.208c-0.042,0 -2.875,-2.5 -6.375,-5.583Z" style="fill:#010101;fill-rule:nonzero;"/><path id="Tatoo_Right_Arm" d="M1767.58,1597.25l30.014,47.256l5.735,16.201l2.666,25.189l6.694,55.229l-18.4,-15.875l-44.625,36.833l-2.084,-57.875l-48.833,-31.083l54.375,-19.833l14.458,-56.042Z" style="fill:none;stroke:#000;stroke-width:8.33px;"/></svg>