<?xml version="1.0" encoding="UTF-8" standalone="no"?><!DOCTYPE svg PUBLIC "-//W3C//DTD SVG 1.1//EN" "http://www.w3.org/Graphics/SVG/1.1/DTD/svg11.dtd"><svg width="100%" height="100%" viewBox="0 0 2375 2375" version="1.1" xmlns="http://www.w3.org/2000/svg" xmlns:xlink="http://www.w3.org/1999/xlink" xml:space="preserve" xmlns:serif="http://www.serif.com/" style="fill-rule:evenodd;clip-rule:evenodd;stroke-miterlimit:10;"><circle id="Layer_18" cx="1192.5" cy="1196.67" r="1152.92" style="fill:#231c1e;"/><g id="Mountains_copy_2"><path d="M62.958,1340.62c0,0 174.209,-800 275,-314.708c16.417,79.166 99.084,141.666 145.834,277.375" style="fill:#d1d3d4;fill-rule:nonzero;stroke:#000;stroke-width:8.33px;"/><path d="M202.708,1586.79c0,0 20.834,-150.25 70.834,-272.75c22.75,-55.625 112.291,-50.75 102,-119.75c-10.542,-70.584 52.625,-116.917 78.5,-173.209c27.666,-60.166 -1.75,-118.083 30.208,-166.958c19,-29.167 88.542,-33.333 108.083,-55.583c21.5,-24.667 15.5,-57.167 36.334,-72.75c91.666,-68.667 208.833,-12.5 237.041,197.791c20.375,152.209 192.75,331.625 266.292,641.875" style="fill:#d1d3d4;fill-rule:nonzero;stroke:#000;stroke-width:8.33px;"/><path d="M1184,1566.21c0,0 254.75,-709.166 547.875,-384.833c6.917,7.625 17.083,74.458 24.042,83.333c58.125,73.792 114.333,130.75 173.375,301.5" style="fill:#d1d3d4;fill-rule:nonzero;stroke:#000;stroke-width:8.33px;"/><path d="M1732.12,1566.21c25.542,-98.916 18.958,-161.583 34.625,-204.666c13.458,-36.959 50,-57.584 61.542,-96.834c7,-23.625 -3.792,-58.333 7.916,-93.041c15.584,-46.042 81.5,-74.542 93.084,-114.25c43.125,-147.667 192.416,-211 382.791,516.416" style="fill:#d1d3d4;fill-rule:nonzero;stroke:#000;stroke-width:8.33px;"/><path d="M652,886.292c0,0 -82,81.958 -60.917,155.25c21.084,73.291 65.875,56.875 44.667,145.833c-21.208,88.958 -130,36.875 -151.792,143.833" style="fill:#231c1e;fill-rule:nonzero;"/><path d="M652.292,886.583c-14.788,17.613 -27.838,36.621 -38.959,56.75c-11.2,19.709 -18.541,41.375 -21.625,63.834c-1.425,11.125 -0.846,22.412 1.709,33.333c2.633,11.154 6.696,21.925 12.083,32.042c5.754,9.971 12.421,19.387 19.917,28.125c3.741,4.525 7.154,9.316 10.208,14.333c3.025,5.196 5.254,10.813 6.625,16.667c2.467,11.662 2.821,23.671 1.042,35.458c-0.709,5.833 -1.709,11.625 -2.875,17.375c-1.109,5.896 -2.742,11.683 -4.875,17.292c-4.304,11.537 -11.475,21.791 -20.834,29.791c-9.412,7.559 -20.033,13.475 -31.416,17.5c-21.959,8.334 -44.542,13.459 -62.959,26.375c-9.25,6.371 -17.02,14.659 -22.791,24.292c-5.809,9.867 -10.175,20.517 -12.959,31.625l-0.833,0c1.513,-11.658 4.933,-22.992 10.125,-33.542c5.413,-10.704 13.108,-20.091 22.542,-27.5c9.529,-7.158 20.021,-12.937 31.166,-17.166c10.875,-4.459 21.959,-7.917 32.5,-12.167c10.484,-3.775 20.321,-9.142 29.167,-15.917c8.504,-6.904 15.104,-15.871 19.167,-26.041c2.058,-5.184 3.716,-10.521 4.958,-15.959c1.375,-5.583 2.542,-11.125 3.5,-16.666c2.196,-11.063 2.546,-22.409 1.042,-33.584c-2.292,-11.104 -7.304,-21.471 -14.584,-30.166c-7.35,-9.038 -14.058,-18.571 -20.083,-28.542c-5.808,-10.167 -10.554,-20.904 -14.167,-32.042c-3.566,-11.416 -4.983,-23.4 -4.166,-35.333c0.929,-11.867 3.55,-23.542 7.791,-34.667c4.121,-11.033 9.255,-21.662 15.334,-31.75c12.037,-20.041 26.85,-38.279 44,-54.166l0.25,0.416Z" style="fill-rule:nonzero;"/><path d="M898.125,1083.71c0,0 -120.042,92.125 -74.083,216.334c45.958,124.208 27.333,127.708 27.333,127.708" style="fill:#231c1e;fill-rule:nonzero;"/><path d="M898.125,1083.71c-11.604,10.567 -22.283,22.109 -31.917,34.5c-9.679,12.225 -18.266,25.275 -25.666,39c-15.054,27.042 -22.904,57.509 -22.792,88.459c0.254,15.366 2.708,30.62 7.292,45.291c2.25,7.292 5.125,14.75 7.625,22.209c2.5,7.458 5,15 7.333,22.541c4.667,15.084 8.875,30.375 12.083,45.834c1.575,7.779 2.717,15.637 3.417,23.541c0.292,3.967 0.292,7.95 0,11.917c-0.179,2 -0.525,3.979 -1.042,5.917c-0.625,1.833 -1.375,4.166 -3.291,4.791c1.562,-1.187 2.537,-3 2.666,-4.958c0.313,-1.912 0.442,-3.854 0.375,-5.792c-0.05,-3.895 -0.412,-7.783 -1.083,-11.625c-1.279,-7.708 -3.021,-15.333 -5.208,-22.833c-4.167,-15.125 -9.084,-30 -14.25,-44.792l-8.042,-22.125c-2.667,-7.375 -5.667,-14.541 -8.333,-22.25c-5.104,-15.35 -7.913,-31.37 -8.334,-47.541c-0.037,-16.167 2.28,-32.25 6.875,-47.75c4.5,-15.404 10.909,-30.188 19.084,-44c16.141,-27.442 37.637,-51.363 63.208,-70.334Z" style="fill-rule:nonzero;"/><path d="M583.375,1373.29c0,0 -50.708,55.5 -22.583,130.5" style="fill:#231c1e;fill-rule:nonzero;"/><path d="M583.375,1373.29c-6.067,9.75 -11.267,20.008 -15.542,30.666c-4.241,10.425 -7.395,21.263 -9.416,32.334c-2.017,10.987 -2.8,22.171 -2.334,33.333c0.617,11.446 2.192,22.817 4.709,34c-5.692,-10.35 -9.475,-21.642 -11.167,-33.333c-1.729,-11.829 -1.517,-23.863 0.625,-35.625c2.175,-11.725 6.125,-23.05 11.708,-33.584c5.413,-10.475 12.667,-19.887 21.417,-27.791Z" style="fill-rule:nonzero;"/><path d="M429.792,1307.62c0,0 -82.459,64 -58.917,110.208c23.542,46.209 29.167,89.917 -4.167,106.584" style="fill:#231c1e;fill-rule:nonzero;"/><path d="M429.792,1307.62c-15.292,14.242 -29.125,29.971 -41.292,46.958c-5.921,8.313 -10.742,17.363 -14.333,26.917c-3.671,9 -4.4,18.933 -2.084,28.375c0.667,2.283 1.546,4.504 2.625,6.625c1.167,2.333 2.334,4.833 3.459,7.25c2.208,4.833 4.166,9.75 6.166,14.792c3.842,10.1 6.484,20.616 7.875,31.333c1.646,10.875 0.546,21.992 -3.208,32.333c-2.033,5.1 -5.1,9.721 -9,13.584c-3.854,3.737 -8.417,6.67 -13.417,8.625c8.992,-5.18 15.65,-13.63 18.584,-23.584c2.479,-9.837 2.691,-20.108 0.625,-30.041c-1.959,-10.075 -4.917,-19.93 -8.834,-29.417c-1.916,-4.792 -3.958,-9.542 -6.166,-14.208c-1.125,-2.375 -2.25,-4.625 -3.459,-6.959c-1.329,-2.558 -2.416,-5.237 -3.25,-8c-2.7,-11.112 -1.75,-22.804 2.709,-33.333c4.166,-10.079 9.783,-19.5 16.666,-27.958c13.15,-16.705 28.775,-31.305 46.334,-43.292Z" style="fill-rule:nonzero;"/><path d="M2011.42,1078.46c0,0 -86.75,75 -65.667,141.209c21.083,66.208 -28.125,130.083 -63.25,129.833" style="fill:#231c1e;fill-rule:nonzero;"/><path d="M2011.42,1078.46c-9.513,9.638 -18.392,19.884 -26.584,30.667c-8.25,10.592 -15.65,21.821 -22.125,33.583c-6.45,11.542 -11.22,23.946 -14.166,36.834c-2.988,12.591 -2.646,25.75 1,38.166c4.279,13.45 5.991,27.584 5.041,41.667c-1.066,14 -4.695,27.688 -10.708,40.375c-5.858,12.667 -14.137,24.063 -24.375,33.542c-5.137,4.687 -10.9,8.641 -17.125,11.75c-6.112,3.225 -12.971,4.779 -19.875,4.5c13.667,-1.167 25,-9.584 34.125,-19.167c27.35,-29.617 36.896,-71.692 25,-110.208c-3.937,-13.792 -4.183,-28.375 -0.708,-42.292c3.416,-13.538 8.896,-26.467 16.25,-38.333c14.429,-23.338 32.783,-44 54.25,-61.084Z" style="fill-rule:nonzero;"/><path d="M2022.12,1324.79c0,0 8,115.833 -75,132.25c-83,16.416 -80.875,79.666 -80.875,79.666" style="fill:#231c1e;fill-rule:nonzero;"/><path d="M2022.12,1324.79c2.775,24.325 0.433,48.966 -6.875,72.333c-3.75,11.921 -9.517,23.108 -17.042,33.083c-7.741,10.109 -17.729,18.284 -29.166,23.875c-5.729,2.717 -11.738,4.8 -17.917,6.209c-6.208,1.25 -11.708,2.375 -17.417,4.166c-11.291,3.05 -22.045,7.83 -31.875,14.167c-20.141,13.008 -33.316,34.488 -35.791,58.333c-0.375,-6.087 0.175,-12.2 1.625,-18.125c4.212,-18.366 15.062,-34.545 30.458,-45.416c10.121,-7.292 21.387,-12.838 33.333,-16.417c5.875,-1.875 12.209,-3.167 17.792,-4.417c5.583,-1.321 11.004,-3.25 16.167,-5.75c10.35,-4.983 19.441,-12.25 26.583,-21.25c7.262,-9.166 13.042,-19.416 17.125,-30.375c4.175,-11.125 7.287,-22.621 9.292,-34.333c2.171,-11.913 3.408,-23.979 3.708,-36.083Z" style="fill-rule:nonzero;"/><path d="M1603.88,1246.12c0,0 48.917,37.833 51.25,78.667c2.333,40.833 -46.875,95.291 0,113.75" style="fill:#231c1e;fill-rule:nonzero;"/><path d="M1603.88,1246.12c15.654,10.429 29.246,23.667 40.083,39.042c5.58,7.862 9.896,16.55 12.792,25.75c2.783,9.471 3.283,19.466 1.458,29.166c-3.583,19.084 -11.875,35.917 -17.333,53.167c-3.129,8.271 -4.133,17.2 -2.917,25.958c0.938,4.267 3.046,8.192 6.084,11.334c3.233,3.229 6.979,5.904 11.083,7.916c-4.529,-1.237 -8.779,-3.345 -12.5,-6.208c-3.858,-3.075 -6.754,-7.2 -8.333,-11.875c-2.459,-9.479 -2.259,-19.458 0.583,-28.833c4.417,-18.417 12.292,-35.375 15.375,-52.875c3.833,-17.292 -2.25,-34.625 -11.5,-50c-9.808,-15.575 -21.525,-29.867 -34.875,-42.542Z" style="fill-rule:nonzero;"/></g><g id="Body"><path d="M1010.92,1457.04c0,0 -382.209,-63.167 -375.167,507.666l1151.25,0c0,0 147.625,-485.416 -254.167,-493.625l-184.125,-32.541l-290.333,-10.792c0,0 -19.792,39.833 -47.458,29.292Z" style="fill:#fecc97;fill-rule:nonzero;stroke:#000;stroke-width:8.33px;"/><path d="M865.625,1964.71c-37.083,-161.75 32.417,-251.375 32.417,-251.375c49.208,-105.5 32.375,-249.625 32.375,-249.625c0,0 54.666,-14.166 93.208,-5.125c0,0 24.167,-8.583 34.875,-30.833c10.708,-22.25 93.25,125 141.667,124.542c48.416,-0.459 149.291,-103.459 149.291,-103.459l183.334,22.25c0,0 -16.667,144.167 32.375,249.625c0,0 75.875,75.584 38.833,237.292l-738.375,6.708Z" style="fill:#29aebd;fill-rule:nonzero;stroke:#000;stroke-width:8.33px;"/><path d="M1412.12,1864.25c0,-0.042 0,-0.083 0,-0.125c0,-108.392 -89.192,-197.583 -197.583,-197.583c-108.392,0 -197.584,89.191 -197.584,197.583c0,108.392 89.192,197.583 197.584,197.583c0.029,0 0.054,0 0.083,0c108.329,0 197.479,-89.129 197.5,-197.458Z" style="fill:#ee4d9b;fill-rule:nonzero;stroke:#000;stroke-width:8.33px;"/></g><g id="Hair"><path d="M1051.75,1397.25c0,0 -330.458,-239.042 -246.083,-597.625c0,0 351.541,-348.083 759.375,-24.625c0,0 157.041,196.875 -51.542,548.417c0,0 7.75,84.375 -19.583,147.666c0,0 24.625,56.25 -18.917,98.459c0,0 39.083,28.125 -19.833,112.5c0,0 37.791,28.125 0,77.333c0,0 37.791,21.083 0,49.208c0,0 41.666,21.084 -5.167,84.375c0,0 -41.667,-44.25 -12.833,-84.375c0,0 -39.125,-21.083 -18.042,-56.25c0,0 -28.125,-28.125 -7,-77.333c0,0 -32.542,-42.208 -12.75,-63.292c0,0 -78.667,-42.166 -22.417,-140.625c0,0 -63.291,-28.125 -35.166,-140.625c0,0 209.791,-281.25 171.708,-562.5c0,0 -586.542,-7.041 -600.625,0c-14.083,7.042 -42.167,414.834 147.667,562.5l-8.792,66.792Z" style="fill:#ffe306;fill-rule:nonzero;stroke:#000;stroke-width:8.33px;"/><path d="M1419.12,1752.21c0,0 -0.292,6.459 14.5,11.125c0,0 4.667,8.792 22.625,-5.541" style="fill:#ffe306;fill-rule:nonzero;stroke:#000;stroke-width:8.33px;"/><path d="M1376.96,1471.08c0,0 43.667,41.667 69.417,55.667c25.75,14 24.5,43.375 24.5,43.375" style="fill:#ffe306;fill-rule:nonzero;"/><path d="M1376.96,1471.08c9.75,6.834 19.125,14 28.417,21.209c9.292,7.208 18.542,14.375 28,21.083c4.592,3.442 9.363,6.642 14.292,9.583c5.571,3.142 10.437,7.396 14.291,12.5c7.396,9.938 10.6,22.392 8.917,34.667c-1.533,-11.367 -6.408,-22.025 -14,-30.625c-3.775,-3.983 -8.233,-7.258 -13.167,-9.667c-5.3,-2.912 -10.42,-6.141 -15.333,-9.666c-9.583,-7.075 -18.712,-14.742 -27.333,-22.959c-8.621,-8.141 -16.667,-16.871 -24.084,-26.125Z" style="fill-rule:nonzero;"/><path d="M1477.46,1571.83c0,0 -9.708,28.75 -45.833,50.334" style="fill:#ffe306;fill-rule:nonzero;stroke:#000;stroke-width:8.33px;"/><path d="M1455.17,1464.04c-6.125,-126.542 59.083,-126.417 59.083,-126.417" style="fill:#ffe306;fill-rule:nonzero;"/><path d="M1455.17,1464.04c-2.313,-12.709 -3.234,-25.634 -2.75,-38.542c0.333,-13.1 2.45,-26.096 6.291,-38.625c3.788,-12.85 10.621,-24.6 19.917,-34.25c9.217,-9.804 22.171,-15.258 35.625,-15c-12.171,2.812 -23.038,9.658 -30.833,19.417c-7.588,9.616 -13.246,20.612 -16.667,32.375c-3.667,11.937 -6.262,24.183 -7.75,36.583c-1.792,12.542 -2.708,25.208 -3.833,38.042Z" style="fill-rule:nonzero;"/><path d="M1493.92,1471.08c0,0 -24.792,39.25 -46.334,53.334" style="fill:#ffe306;fill-rule:nonzero;stroke:#000;stroke-width:8.33px;"/><path d="M1415.54,1372.67c0,0 37.166,35.125 41.458,84.375" style="fill:#ffe306;fill-rule:nonzero;"/><path d="M1415.54,1372.67c6.812,4.525 12.896,10.058 18.041,16.416c5.263,6.28 9.805,13.13 13.542,20.417c3.75,7.321 6.554,15.092 8.333,23.125c1.934,7.988 2.442,16.254 1.5,24.417c-2.416,-7.792 -4.833,-15.25 -7.708,-22.542c-2.875,-7.292 -6.083,-14.292 -9.583,-21.208c-7.3,-13.967 -15.354,-27.529 -24.125,-40.625Z" style="fill-rule:nonzero;"/><path d="M1396.96,1610.29c0,0 48.25,3.166 55.292,43.041" style="fill:#ffe306;fill-rule:nonzero;"/><path d="M1396.96,1610.29c6.479,-1.029 13.104,-0.717 19.459,0.916c6.495,1.484 12.658,4.167 18.166,7.917c5.655,3.833 10.313,8.963 13.584,14.958c3.25,5.867 4.7,12.563 4.166,19.25c-2.529,-5.591 -5.733,-10.854 -9.541,-15.666c-3.721,-4.463 -8.038,-8.388 -12.834,-11.667c-10.316,-6.567 -21.4,-11.842 -33,-15.708Z" style="fill-rule:nonzero;"/><path d="M1500.04,1118.5c0,0 -15.667,157.667 -50,178.75" style="fill:#ffe306;fill-rule:nonzero;"/><path d="M1500.04,1118.5c-0.034,15.796 -1.005,31.571 -2.917,47.25c-1.708,15.667 -4.167,31.292 -7.5,46.75c-3.217,15.583 -7.588,30.904 -13.083,45.833c-2.779,7.5 -6.196,14.746 -10.209,21.667c-3.716,7.179 -9.358,13.179 -16.291,17.333c5.595,-5.35 9.875,-11.925 12.5,-19.208c2.958,-7.146 5.516,-14.446 7.666,-21.875c4.167,-14.917 7.875,-30.125 11.084,-45.375c3.208,-15.25 6.25,-30.625 9.291,-46.042c3.042,-15.416 6.042,-30.875 9.459,-46.333Z" style="fill-rule:nonzero;"/><path d="M1455.17,809.75c0,0 72.541,147.167 73.833,188.042c1.292,40.875 19.792,116.041 -40.875,275.541" style="fill:#ffe306;fill-rule:nonzero;"/><path d="M1455.17,809.75c19.083,35.583 36.958,71.833 52.791,109.083c8.221,18.63 15.317,37.734 21.25,57.209c1.467,4.991 2.609,10.071 3.417,15.208c0.396,2.638 0.633,5.292 0.708,7.958l0.417,7.459c0.792,9.958 1.792,20.041 2.417,30.208c1.262,20.338 1.029,40.738 -0.709,61.042c-1.795,20.25 -4.912,40.362 -9.333,60.208c-8.975,39.496 -21.629,78.067 -37.792,115.208c13.059,-38.145 23.555,-77.12 31.417,-116.666c7.779,-39.296 10.496,-79.429 8.083,-119.417c-0.541,-10 -1.458,-20 -2.166,-30.167l-0.417,-7.666c-0.042,-2.384 -0.237,-4.767 -0.583,-7.125c-0.763,-4.83 -1.779,-9.613 -3.042,-14.334c-5.492,-19.258 -11.987,-38.212 -19.458,-56.791c-7.334,-18.75 -14.959,-37.405 -22.875,-55.959c-7.917,-18.5 -16.084,-36.916 -24.125,-55.458Z" style="fill-rule:nonzero;"/><path d="M826.583,925.167c0,0 -9,61.541 6.834,86.125" style="fill:#ffe306;fill-rule:nonzero;"/><path d="M826.583,925.167c1.375,14.875 1.209,29.166 1.709,43.625c0.25,7.166 0.458,14.291 1.125,21.333c0.558,7.196 1.958,14.296 4.166,21.167c-5.179,-5.629 -8.775,-12.529 -10.416,-20c-1.859,-7.275 -2.879,-14.742 -3.042,-22.25c-0.183,-7.442 0.263,-14.884 1.333,-22.25c0.88,-7.379 2.6,-14.634 5.125,-21.625Z" style="fill-rule:nonzero;"/><path d="M851.375,1090.46l28.458,67.459" style="fill:#ffe306;fill-rule:nonzero;"/><path d="M851.375,1090.46c3.817,4.884 7.192,10.1 10.083,15.584c2.946,5.416 5.617,10.979 8,16.666c2.388,5.621 4.471,11.367 6.25,17.209c1.95,5.9 3.346,11.966 4.167,18.125c-3.825,-4.892 -7.2,-10.121 -10.083,-15.625c-2.959,-5.405 -5.617,-10.967 -7.959,-16.667c-2.387,-5.625 -4.487,-11.371 -6.291,-17.208c-1.904,-5.896 -3.3,-11.946 -4.167,-18.084Z" style="fill-rule:nonzero;"/><path d="M927.833,1170.5c0,0 21.125,116.667 83.084,129.542" style="fill:#ffe306;fill-rule:nonzero;"/><path d="M927.833,1170.5c4.167,12.875 8.709,25.5 13.5,37.958c4.675,12.409 10.059,24.542 16.125,36.334c5.85,11.733 13.084,22.729 21.542,32.75c8.5,10.15 19.5,17.908 31.917,22.5c-13.896,-1.621 -26.817,-7.979 -36.584,-18c-9.866,-9.696 -18.062,-20.963 -24.25,-33.334c-6.216,-12.183 -11.212,-24.954 -14.916,-38.125c-3.838,-13.066 -6.296,-26.504 -7.334,-40.083Z" style="fill-rule:nonzero;"/><path d="M865.625,960.875c0,0 3.333,134.042 62.208,182.375" style="fill:#ffe306;fill-rule:nonzero;"/><path d="M865.625,960.875c2.333,16.375 4.958,32.542 7.958,48.625c3,16.083 6.5,32 10.959,47.625c4.175,15.704 9.654,31.038 16.375,45.833c6.633,14.892 15.733,28.555 26.916,40.417c-13.708,-9.742 -24.92,-22.596 -32.708,-37.5c-7.979,-14.717 -14.229,-30.304 -18.625,-46.458c-4.371,-16.025 -7.487,-32.367 -9.333,-48.875c-1.975,-16.479 -2.492,-33.1 -1.542,-49.667Z" style="fill-rule:nonzero;"/><path d="M1513.46,809.75l0,71.292" style="fill:#ffe306;fill-rule:nonzero;stroke:#000;stroke-width:4.17px;"/><path d="M1563.12,854.375c0,0 65.208,316.333 -56.083,442.875" style="fill:#ffe306;fill-rule:nonzero;"/><path d="M1563.12,854.375c8.683,37.475 14.713,75.513 18.042,113.833c3.604,38.392 4.396,76.992 2.375,115.5c-1.842,38.742 -8.304,77.125 -19.25,114.334c-5.713,18.466 -13.275,36.308 -22.584,53.25c-9.266,16.925 -21.008,32.37 -34.833,45.833c12.525,-14.454 23.021,-30.546 31.208,-47.833c8.204,-17.171 14.825,-35.05 19.792,-53.417c4.975,-18.371 8.817,-37.033 11.5,-55.875c2.792,-18.875 4.625,-37.833 5.667,-56.875c2.041,-38.158 1.875,-76.404 -0.5,-114.542c-1.167,-19.125 -2.625,-38.208 -4.584,-57.25c-1.958,-19.041 -4.083,-37.958 -6.833,-56.958Z" style="fill-rule:nonzero;"/><path d="M1475.04,1109.54c0,0 -16.334,166.291 -75.625,198.083" style="fill:#ffe306;fill-rule:nonzero;"/><path d="M1475.04,1109.54c-0.388,18.237 -2.075,36.421 -5.042,54.416c-2.808,18.059 -6.788,35.917 -11.917,53.459c-5.071,17.708 -12.054,34.808 -20.833,51c-4.454,8.125 -9.775,15.737 -15.875,22.708c-6.008,7.1 -13.504,12.792 -21.958,16.667c7.358,-5.184 13.725,-11.646 18.791,-19.084c5.088,-7.312 9.534,-15.05 13.292,-23.125c7.454,-16.35 13.654,-33.25 18.542,-50.541c5.208,-17.209 9.458,-34.709 13.583,-52.334c4.125,-17.625 7.708,-35.5 11.417,-53.166Z" style="fill-rule:nonzero;"/><path d="M1412.12,1675c0,0 15.417,35.083 43.042,11.625" style="fill:#ffe306;fill-rule:nonzero;stroke:#000;stroke-width:8.33px;"/></g><g id="Face"><path d="M1058.38,1324.79l0,102.958c0,0 101.083,140.625 150.292,123.042c49.208,-17.584 140.625,-101.959 140.625,-101.959l-10.584,-124.041" style="fill:#fecc97;fill-rule:nonzero;stroke:#000;stroke-width:8.33px;"/><path d="M898.25,798.542c0,0 -14.708,542.25 298.5,595.833l3.458,-0.792c313.209,-53.625 316.5,-595.041 316.5,-595.041" style="fill:#fecc97;stroke:#000;stroke-width:8.33px;"/><path d="M945.417,889.25c0,0 17.125,152.292 192.458,108.792l3.292,-2.834c-12.542,-39.221 -41.129,-71.354 -78.625,-88.375c-37.496,-17.021 -45.834,-35.583 -135.584,-23.083" style="fill:#fff;stroke:#000;stroke-width:12.5px;"/><path d="M1012.54,886.292c0,0 -13.334,49.541 34.791,69.333c48.125,19.792 54.167,-22.667 54.167,-22.667l-42.333,-28.333l-46.625,-18.333" style="fill:#29aebd;fill-rule:nonzero;stroke:#000;stroke-width:4.17px;"/><path d="M1038.83,894.375c0,0 -7.625,25 1.709,29.917c0,0 3.083,5.375 21.916,12.5c0,0 11.792,4.708 18.625,-17.625l-41.916,-25" style="fill-rule:nonzero;"/><path d="M1449.71,889.25c0,0 -17.166,152.292 -192.5,108.75l-3.291,-2.833c12.562,-39.217 41.162,-71.33 78.666,-88.334c37.504,-17.004 45.834,-35.583 135.542,-23.083" style="fill:#fff;stroke:#000;stroke-width:12.5px;"/><path d="M1382.5,886.292c0,0 13.375,49.541 -34.75,69.333c-48.125,19.792 -54.167,-22.667 -54.167,-22.667l42.292,-28.333l46.708,-18.333" style="fill:#29aebd;fill-rule:nonzero;stroke:#000;stroke-width:4.17px;"/><path d="M1356.25,894.375c0,0 7.625,25 -1.708,29.917c0,0 -3.084,5.375 -21.917,12.5c0,0 -11.75,4.708 -18.625,-17.625l41.917,-25" style="fill-rule:nonzero;"/><g id="Freckles"><path d="M1336.75,1098.04c0,0.012 0,0.029 0,0.041c0,1.463 -1.204,2.667 -2.667,2.667c-1.462,0 -2.666,-1.204 -2.666,-2.667c0,-1.462 1.204,-2.666 2.666,-2.666c0.013,0 0.03,0 0.042,0c1.442,0 2.625,1.183 2.625,2.625Z" style="fill-rule:nonzero;"/><path d="M1359.38,1123.71c0,1.442 -1.183,2.625 -2.625,2.625c-1.442,0 -2.625,-1.183 -2.625,-2.625c0,-1.441 1.183,-2.625 2.625,-2.625c1.442,0 2.625,1.184 2.625,2.625Z" style="fill-rule:nonzero;"/><path d="M1399.38,1105.25c0,0.013 0,0.029 0,0.042c0,1.462 -1.204,2.666 -2.667,2.666c-1.462,0 -2.666,-1.204 -2.666,-2.666c0,-1.463 1.204,-2.667 2.666,-2.667c0.013,0 0.03,0 0.042,0c1.442,0 2.625,1.183 2.625,2.625Z" style="fill-rule:nonzero;"/><path d="M1368.62,1081.08c-0.021,1.446 -1.221,2.625 -2.667,2.625c-1.441,0 -2.625,-1.183 -2.625,-2.625c0,-1.441 1.184,-2.625 2.625,-2.625c1.446,0 2.646,1.179 2.667,2.625Z" style="fill-rule:nonzero;"/><circle cx="1405.88" cy="1078.46" r="2.625"/><path d="M1006.29,1098.04c-0.021,1.446 -1.221,2.625 -2.667,2.625c-1.442,0 -2.625,-1.184 -2.625,-2.625c0,-1.442 1.183,-2.625 2.625,-2.625c1.446,0 2.646,1.179 2.667,2.625Z" style="fill-rule:nonzero;"/><path d="M1028.92,1123.71c0,0.013 0,0.03 0,0.042c0,1.463 -1.204,2.667 -2.667,2.667c-1.462,0 -2.667,-1.204 -2.667,-2.667c0,-1.462 1.205,-2.667 2.667,-2.667c1.446,0 2.646,1.179 2.667,2.625Z" style="fill-rule:nonzero;"/><path d="M1068.92,1105.25c-0.021,1.446 -1.221,2.625 -2.667,2.625c-1.442,0 -2.625,-1.183 -2.625,-2.625c0,-1.442 1.183,-2.625 2.625,-2.625c1.446,0 2.646,1.179 2.667,2.625Z" style="fill-rule:nonzero;"/><path d="M1038.12,1081.08c0,1.442 -1.183,2.625 -2.625,2.625c-1.442,0 -2.625,-1.183 -2.625,-2.625c0,-1.441 1.183,-2.625 2.625,-2.625c1.442,0 2.625,1.184 2.625,2.625Z" style="fill-rule:nonzero;"/><path d="M1078.04,1078.46c-0.021,1.425 -1.2,2.584 -2.625,2.584c-1.442,0 -2.625,-1.184 -2.625,-2.625c0,-1.442 1.183,-2.625 2.625,-2.625c1.441,0 2.625,1.183 2.625,2.625c0,0.012 0,0.029 0,0.041Z" style="fill-rule:nonzero;"/></g><path d="M1128.21,1143.25c0,0 -34.25,26.625 5.292,34.417" style="fill:none;stroke:#000;stroke-width:8.33px;"/><path d="M1257.54,1245.08l1.791,-0.708c0,0 -58.333,120.042 -144.291,7.5l9.208,0" style="fill:#f7a497;fill-rule:nonzero;stroke:#000;stroke-width:8.33px;"/><path d="M1117.5,1251.29l0.458,-0.25l26.959,-12.5c3.495,-1.671 7.516,-1.88 11.166,-0.584c6.375,2.125 21.167,8.334 21.167,8.334c7.758,3.012 16.367,3.012 24.125,0c13.792,-4.959 23.667,-8.917 23.667,-8.917c3.483,-1.346 7.35,-1.346 10.833,0c5.875,2.208 17.208,7.5 17.208,7.5l2.834,1.417l1.625,0.666c-43.654,22.313 -95.092,23.905 -140.042,4.334Z" style="fill:#f7a497;fill-rule:nonzero;stroke:#000;stroke-width:8.33px;"/><path d="M1255.92,1246.12c0,0 16.666,-3.25 24.666,-12.917" style="fill:none;stroke:#000;stroke-width:4.17px;"/><path d="M1272.92,1219.67c0,0 0,17.083 20.166,20" style="fill:none;stroke:#000;stroke-width:4.17px;"/><path d="M1146.67,932.333c0,0 -102.834,-94.916 -147.625,-92.291c0,0 -31.667,-18.459 -71.209,7.916l0,-7.916c39.355,-15.35 83.409,-13.446 121.292,5.25c63.292,31.666 97.542,60.666 97.542,60.666c0,0 13.208,10.542 10.541,18.459c-1.5,4.579 -5.725,7.754 -10.541,7.916Z" style="fill-rule:nonzero;"/><path d="M1249,932.333c0,0 102.833,-94.916 147.625,-92.291c0,0 31.667,-18.459 71.208,7.916l0,-7.916c-39.354,-15.35 -83.408,-13.446 -121.291,5.25c-63.292,31.666 -97.542,60.666 -97.542,60.666c0,0 -13.208,10.542 -10.583,18.459c1.525,4.579 5.758,7.746 10.583,7.916Z" style="fill-rule:nonzero;"/><path d="M1227.08,1025.92c0,0 -15.791,68.541 -5.25,84.375c10.542,15.833 21.084,26.375 23.709,38.25c2.625,11.875 5.291,22.666 -11.834,29.166c0,0 -17.166,-6.708 -15.833,-14.625c0,0 -43.5,26.375 -48.792,17.125c0,0 -16.916,1.334 -36.666,-23.708" style="fill:none;stroke:#000;stroke-width:8.33px;"/></g><g id="Helmet"><path d="M1575.67,775c0,0 0,-2.042 0,-5.875c0,-51 -13.625,-418.333 -382.834,-418.333c-396.75,0 -388.375,440.333 -388.375,440.333c0,0 513,51.833 771.25,-18.083" style="fill:#ee4d9b;fill-rule:nonzero;stroke:#000;stroke-width:8.33px;"/><path d="M804.5,772.667c0,0 -24.625,-7.042 -21.083,17.541c0,0 36.291,53.334 406.75,46.917c371.5,-6.5 342.083,-41.667 412.5,-65.417c0,0 8.333,-10.333 -16.417,-13.833c-24.75,-3.5 -244.333,62.5 -396.042,49.333c-0.125,0 -145.916,9.334 -385.708,-34.541Z" style="fill-rule:nonzero;"/><path d="M812.667,791.125l31.666,0l71.875,228.917l30.792,110.583l-134.333,-339.5Z" style="fill-rule:nonzero;"/><path d="M1586.12,769.125l-35.167,10.542l-66.458,253.166l-30.625,110.417l132.25,-374.125Z" style="fill-rule:nonzero;"/><path d="M1496.96,497.042l-3.541,47.25l-68.375,7.916l51.375,61.959l-15.334,130.5l98.125,-104.417c0,0 -37.5,-125.833 -62.083,-143.208" style="fill:#29aebd;fill-rule:nonzero;stroke:#000;stroke-width:4.17px;"/><path d="M906.625,475.875l-11.75,75l93.625,14.5l-87.042,59.333l-1.416,112.042l-71.459,-106.833c0,0 44.792,-131.5 77.917,-154.167" style="fill:#29aebd;fill-rule:nonzero;stroke:#000;stroke-width:4.17px;"/><path d="M1148.21,526.75c0,16.417 -16.166,29.708 -36.125,29.708c-19.958,0 -36.166,-13.291 -36.166,-29.708c0,-16.417 16.208,-29.708 36.166,-29.708c19.959,0 36.125,13.5 36.125,29.708Z" style="fill-rule:nonzero;stroke:#000;stroke-width:4.17px;"/><path d="M1324,526.75c0,16.417 -16.167,29.708 -36.125,29.708c-19.958,0 -36.167,-13.291 -36.167,-29.708c0,-16.417 16.167,-29.708 36.167,-29.708c20,0 36.125,13.5 36.125,29.708Z" style="fill-rule:nonzero;stroke:#000;stroke-width:4.17px;"/></g><path id="Circle" d="M1187.54,6.375c-652.417,0 -1181.29,528.75 -1181.29,1181.12c0,652.375 528.875,1181.38 1181.29,1181.38c652.416,0 1181.21,-529.167 1181.21,-1181.38c0,-652.208 -528.833,-1181.12 -1181.21,-1181.12Zm-0.334,2105.29c-510.375,-0.125 -924.041,-413.625 -924.041,-924.167c0,-510.542 413.666,-924.042 924,-924.042c510.333,0 924.041,413.75 924.041,924.042c0,510.292 -413.708,924.042 -924.041,924.042l0.041,0.125Z" style="fill:#fff;fill-rule:nonzero;stroke:#231c1e;stroke-width:12.5px;"/><g id="Plate_copy"><rect x="152.792" y="1852.67" width="2100" height="418.125" style="fill:#fff;stroke:#000;stroke-width:16.67px;"/><path d="M1982.33,1954.25c0,0.013 0,0.029 0,0.042c0,13.579 -11.17,24.75 -24.75,24.75c-13.579,0 -24.75,-11.171 -24.75,-24.75c0,-13.58 11.171,-24.75 24.75,-24.75c0.013,0 0.03,0 0.042,0c13.546,0.021 24.688,11.162 24.708,24.708Z" style="fill:none;stroke:#000;stroke-width:8.33px;"/><text x="600.5px" y="2019.54px" style="font-family:'Avillar';font-size:161.708px;stroke:#000;stroke-width:4.17px;">IRON MOUNTAIN</text><g><text x="625.796px" y="2200.08px" style="font-family:'LuckyRacer', 'Lucky Racer';font-size:161.708px;stroke:#000;stroke-width:4.17px;">R</text><text x="735.692px" y="2200.08px" style="font-family:'LuckyRacer', 'Lucky Racer';font-size:161.708px;stroke:#000;stroke-width:4.17px;">OLLER GIRLS</text></g><path d="M454.542,1958c0,0.013 0,0.029 0,0.042c0,13.579 -11.171,24.75 -24.75,24.75c-13.579,0 -24.75,-11.171 -24.75,-24.75c0,-13.579 11.171,-24.75 24.75,-24.75c13.562,0 24.729,11.146 24.75,24.708Z" style="fill:none;stroke:#000;stroke-width:8.33px;"/></g><path id="path1935" d="M655.583,1773.33c-7.625,-2.375 -4.268,-5.606 -4.497,-11.25c-0.202,-5.004 -0.12,-6.763 1.338,-7.096c8.975,-8.892 9.851,-14.308 17.868,-24.07c13.291,-15.25 25.916,-29.625 28,-31.959c2.833,-3.166 3.666,-4.416 3.291,-5c-1,-1.583 -24.575,-10.674 -29.908,-2.258c-1.292,2.33 13.505,-49.973 16.583,-35.161c3.671,17.67 38.659,40.419 71.617,69.294l28.458,25c1.388,1.471 3.1,2.6 5,3.292c1.084,0 1.125,0 0.959,2.625c0.008,3.529 -1.334,6.929 -3.75,9.5c-2.763,1.633 -5.821,2.696 -9,3.125l-2.292,0.417l-32.042,-31.5c-17.666,-17.292 -32.208,-31.417 -32.416,-31.292c-0.209,0.125 -11.875,14.458 -26,31.958c-14.125,17.5 -26.459,32.667 -27.417,33.709l-1.75,1.916l-4.042,-1.25Zm63.542,-85.458l-6.583,-5.583l17.166,-19.584c14.459,-16.666 17.125,-19.791 17.042,-20.833c-0.083,-1.042 -1.917,-3.042 -13.375,-12.875c-4.583,-3.675 -8.937,-7.629 -13.042,-11.833c0.334,-0.35 0.809,-0.534 1.292,-0.5c3.525,-2.55 6.729,-5.517 9.542,-8.834c2.862,-3.125 5.891,-6.087 9.083,-8.875c0.333,0 6,4.875 12.5,10.834c12.5,11.333 13.542,11.916 15.292,9.791c0.404,-0.545 1,-0.92 1.666,-1.041c1.659,0.729 3.192,1.712 4.542,2.916c1.508,1.384 3.3,2.421 5.25,3.042l1.5,0l-1.583,1.958c-0.842,0.992 -1.413,2.184 -1.667,3.459c0,1.291 0.417,1.916 4.167,4.958c1.5,1.325 3.15,2.471 4.916,3.417c0.5,0 25.709,43.041 25.459,43.416c-0.25,0.375 -9.042,-4.166 -19.959,-9.583l-19.791,-9.75l-5.834,-5.75c-2.083,-1.983 -4.266,-3.862 -6.541,-5.625c-2.275,-1.762 -8,9.583 -17.459,21.25c-9.458,11.667 -17.166,21.208 -17.208,21.208c-0.042,0 -2.875,-2.5 -6.375,-5.583Z" style="fill:#010101;fill-rule:nonzero;"/><path id="Tatoo_Right_Arm" d="M1767.58,1597.21l28.452,51.685l10.968,45.337l5.107,28.854l-17.818,2.166l-44.625,36.833l-2.084,-57.875l-48.833,-31.083l54.375,-19.833l14.458,-56.084Z" style="fill:none;stroke:#000;stroke-width:8.33px;"/></svg>