<?xml version="1.0" encoding="UTF-8" standalone="no"?><!DOCTYPE svg PUBLIC "-//W3C//DTD SVG 1.1//EN" "http://www.w3.org/Graphics/SVG/1.1/DTD/svg11.dtd"><svg width="100%" height="100%" viewBox="0 0 593 583" version="1.1" xmlns="http://www.w3.org/2000/svg" xmlns:xlink="http://www.w3.org/1999/xlink" xml:space="preserve" xmlns:serif="http://www.serif.com/" style="fill-rule:evenodd;clip-rule:evenodd;stroke-miterlimit:10;"><circle id="Layer_18" cx="299.2" cy="295.7" r="276.7"/><g id="Mountains_copy_2"><path d="M28.1,330.2c0,0 41.8,-192 66,-75.5c3.9,19 23.8,34 35,66.6" style="fill:#d1d3d4;fill-rule:nonzero;stroke:#000;stroke-width:2px;"/><path d="M61.6,389.3c0,0 5,-36.1 17,-65.5c5.5,-13.4 27,-12.2 24.5,-28.7c-2.5,-16.9 12.6,-28.1 18.8,-41.6c6.6,-14.4 -0.4,-28.3 7.2,-40.1c4.6,-7 21.3,-8 25.9,-13.3c5.2,-5.9 3.7,-13.7 8.7,-17.5c22,-16.5 50.1,-3 56.9,47.5c4.9,36.5 46.3,79.6 63.9,154.1" style="fill:#d1d3d4;fill-rule:nonzero;stroke:#000;stroke-width:2px;"/><path d="M297.1,384.4c0,0 61.1,-170.2 131.5,-92.3c1.7,1.8 4.1,17.9 5.8,20c14,17.7 27.4,31.4 41.6,72.4" style="fill:#d1d3d4;fill-rule:nonzero;stroke:#000;stroke-width:2px;"/><path d="M428.7,384.4c6.1,-23.7 4.5,-38.8 8.3,-49.1c3.2,-8.9 12,-13.8 14.8,-23.2c1.7,-5.7 -0.9,-14 1.9,-22.3c3.7,-11.1 19.6,-17.9 22.3,-27.4c10.4,-35.4 46.2,-50.6 91.9,123.9" style="fill:#d1d3d4;fill-rule:nonzero;stroke:#000;stroke-width:2px;"/><g><path d="M169.5,221.2c0,0 -19.7,19.7 -14.6,37.3c5.1,17.6 15.8,13.7 10.7,35c-5.1,21.4 -31.2,8.9 -36.4,34.5" style="fill-rule:nonzero;"/><path d="M169.5,221.2c-3.6,4.3 -6.7,8.8 -9.4,13.6c-1.3,2.4 -2.4,4.9 -3.4,7.5c-0.9,2.6 -1.6,5.2 -1.9,7.9c-0.3,2.7 -0.2,5.4 0.4,8c0.7,2.6 1.5,5.3 2.9,7.7c1.3,2.4 3,4.6 4.8,6.8c0.4,0.5 0.8,1.1 1.3,1.7c0.4,0.6 0.8,1.2 1.2,1.8c0.3,0.6 0.7,1.2 0.9,1.9c0.3,0.7 0.5,1.3 0.6,2.1c0.2,0.7 0.3,1.4 0.4,2.1c0,0.7 0.2,1.4 0.1,2.1l0,2.1c-0.1,0.7 -0.2,1.4 -0.2,2.1c-0.1,1.4 -0.4,2.8 -0.7,4.2c-0.1,0.7 -0.3,1.4 -0.5,2.1c-0.2,0.7 -0.4,1.4 -0.7,2.1c-1,2.7 -2.8,5.2 -5,7.2c-2.3,1.9 -4.9,3.2 -7.5,4.2c-5.3,2 -10.7,3.2 -15.1,6.3c-2.2,1.5 -4.1,3.5 -5.5,5.8c-1.4,2.3 -2.4,4.9 -3.1,7.6l-0.2,0c0.4,-2.8 1.1,-5.5 2.4,-8c1.3,-2.5 3.2,-4.8 5.4,-6.6c2.3,-1.8 4.9,-3.1 7.5,-4.1c2.6,-1.1 5.3,-1.9 7.8,-2.9c2.5,-1 4.9,-2.2 7,-3.8c2,-1.7 3.6,-3.8 4.6,-6.2c0.2,-0.6 0.5,-1.2 0.7,-1.9c0.2,-0.6 0.4,-1.3 0.5,-2c0.3,-1.3 0.7,-2.7 0.8,-4c0.5,-2.7 0.7,-5.4 0.2,-8.1c-0.4,-2.6 -1.8,-5.1 -3.5,-7.3c-1.7,-2.2 -3.4,-4.4 -4.8,-6.9l-1,-1.8l-0.9,-1.9c-0.3,-0.6 -0.6,-1.3 -0.8,-1.9l-0.7,-2c-0.9,-2.7 -1.2,-5.6 -1,-8.5c0.4,-5.7 2.7,-11.1 5.6,-15.9c2.9,-4.8 6.5,-9.2 10.6,-13l0.2,-0.1Z" style="fill-rule:nonzero;"/></g><g><path d="M228.5,268.6c0,0 -28.8,22.1 -17.8,51.9c11,29.8 6.6,30.6 6.6,30.6" style="fill-rule:nonzero;"/><path d="M228.5,268.6c-2.8,2.5 -5.4,5.3 -7.7,8.3c-1.2,1.5 -2.3,3 -3.3,4.6c-1,1.6 -2,3.2 -2.9,4.8c-0.9,1.6 -1.6,3.3 -2.4,5c-0.7,1.7 -1.3,3.5 -1.7,5.3c-0.9,3.6 -1.5,7.2 -1.4,10.9c0.1,3.7 0.7,7.3 1.8,10.9c1.1,3.5 2.5,7.1 3.6,10.7c1.1,3.6 2.1,7.3 2.9,11c0.4,1.9 0.7,3.7 0.8,5.6c0.1,1 0.1,1.9 0,2.9l-0.1,0.7l-0.2,0.7c-0.2,0.4 -0.3,1 -0.8,1.2c0.4,-0.2 0.5,-0.8 0.6,-1.2l0.1,-0.7l0,-0.7c0,-0.9 -0.1,-1.9 -0.3,-2.8c-0.3,-1.8 -0.7,-3.7 -1.3,-5.5c-1,-3.6 -2.2,-7.2 -3.4,-10.7c-0.6,-1.8 -1.3,-3.5 -1.9,-5.3c-0.7,-1.8 -1.3,-3.5 -1.9,-5.4c-1.2,-3.7 -1.9,-7.5 -2,-11.4c-0.1,-7.8 2.2,-15.5 6.1,-22c4.2,-6.7 9.4,-12.4 15.4,-16.9Z" style="fill-rule:nonzero;"/></g><g><path d="M153,338.1c0,0 -12.2,13.3 -5.4,31.3" style="fill-rule:nonzero;"/><path d="M153,338.1c-1.5,2.4 -2.7,4.8 -3.7,7.4c-1,2.5 -1.8,5.1 -2.2,7.8c-0.5,2.6 -0.7,5.3 -0.5,8c0,1.4 0.2,2.7 0.4,4.1c0,0.7 0.2,1.4 0.3,2c0.1,0.7 0.3,1.4 0.4,2.1c-1.3,-2.5 -2.3,-5.2 -2.6,-8c-0.3,-1.4 -0.3,-2.8 -0.3,-4.3c0,-0.7 0.1,-1.4 0.2,-2.1c0,-0.7 0.2,-1.4 0.3,-2.1c0.5,-2.8 1.4,-5.6 2.8,-8.1c1.1,-2.6 2.8,-5 4.9,-6.8Z" style="fill-rule:nonzero;"/></g><g><path d="M116.1,322.3c0,0 -19.8,15.4 -14.2,26.5c5.6,11.1 7,21.6 -1,25.6" style="fill-rule:nonzero;"/><path d="M116.1,322.3c-3.6,3.5 -7.1,7.2 -9.9,11.3c-1.4,2 -2.6,4.2 -3.4,6.5c-0.4,1.1 -0.7,2.3 -0.8,3.4c-0.1,1.2 0,2.3 0.3,3.4c0.1,0.6 0.4,1 0.6,1.6l0.8,1.7c0.5,1.2 1,2.3 1.5,3.6c0.9,2.4 1.6,4.9 1.9,7.5c0.3,2.6 0.2,5.3 -0.8,7.8c-1,2.5 -3,4.4 -5.4,5.3c2.2,-1.3 3.8,-3.3 4.5,-5.7c0.7,-2.3 0.5,-4.8 0.1,-7.2c-0.4,-2.4 -1.2,-4.8 -2.1,-7.1c-0.4,-1.2 -1,-2.3 -1.5,-3.4l-0.8,-1.7c-0.3,-0.6 -0.6,-1.3 -0.8,-1.9c-0.4,-1.3 -0.5,-2.8 -0.3,-4.1c0.2,-1.4 0.5,-2.7 1,-3.9c1,-2.5 2.4,-4.7 4,-6.7c3.2,-4.1 7,-7.5 11.1,-10.4Z" style="fill-rule:nonzero;"/></g><g><path d="M495.7,267.3c0,0 -20.8,18 -15.8,33.9c5.1,15.9 -6.8,31.2 -15.2,31.2" style="fill-rule:nonzero;"/><path d="M495.7,267.3c-2.3,2.3 -4.4,4.8 -6.4,7.4c-2,2.6 -3.8,5.2 -5.3,8.1c-1.5,2.8 -2.8,5.8 -3.4,8.8c-0.7,3.1 -0.7,6.2 0.2,9.2c1,3.2 1.5,6.6 1.2,10c-0.3,3.4 -1.1,6.7 -2.6,9.7c-1.4,3 -3.4,5.8 -5.8,8.1c-1.2,1.1 -2.6,2.1 -4.1,2.8c-0.7,0.4 -1.5,0.6 -2.3,0.9c-0.8,0.2 -1.6,0.3 -2.4,0.2c1.6,-0.1 3.2,-0.7 4.5,-1.6c1.4,-0.8 2.6,-1.9 3.7,-3c2.2,-2.3 3.9,-5.1 5.1,-8c2.5,-5.8 2.9,-12.5 0.9,-18.5c-1,-3.3 -1,-6.9 -0.2,-10.2c0.8,-3.3 2.2,-6.4 3.9,-9.2c3.4,-5.7 8,-10.6 13,-14.7Z" style="fill-rule:nonzero;"/></g><g><path d="M498.3,326.4c0,0 1.9,27.8 -18,31.7c-20,3.9 -19.4,19.1 -19.4,19.1" style="fill-rule:nonzero;"/><path d="M498.3,326.4c0.6,5.8 0.2,11.7 -1.6,17.4c-0.9,2.8 -2.3,5.5 -4.1,7.9c-1.8,2.4 -4.3,4.4 -7,5.7c-0.7,0.3 -1.4,0.6 -2.1,0.9l-1.1,0.4l-1.1,0.3l-4.2,1c-2.7,0.8 -5.3,1.9 -7.6,3.4c-2.3,1.6 -4.3,3.5 -5.8,5.9c-1.5,2.4 -2.5,5.1 -2.8,8c-0.1,-1.4 0.1,-2.9 0.4,-4.3c0.3,-1.4 0.9,-2.8 1.5,-4.2c1.4,-2.6 3.4,-4.9 5.8,-6.7c2.4,-1.8 5.2,-3 8,-3.9l4.3,-1.1l1,-0.3l1,-0.3c0.7,-0.2 1.3,-0.5 1.9,-0.8c2.5,-1.2 4.7,-2.9 6.4,-5.1c1.8,-2.1 3.1,-4.7 4.1,-7.3c1,-2.6 1.7,-5.4 2.2,-8.2c0.5,-2.9 0.7,-5.8 0.8,-8.7Z" style="fill-rule:nonzero;"/></g><g><path d="M397.9,307.5c0,0 11.7,9.1 12.3,18.9c0.6,9.8 -11.3,22.9 0,27.3" style="fill-rule:nonzero;"/><path d="M397.9,307.5c3.7,2.5 7,5.6 9.6,9.4c1.3,1.9 2.4,3.9 3.1,6.2c0.4,1.1 0.5,2.3 0.6,3.5c0.1,1.2 -0.1,2.4 -0.2,3.5c-0.9,4.6 -2.8,8.6 -4.1,12.8c-0.6,2.1 -1.1,4.2 -0.7,6.2c0.2,1 0.7,1.9 1.5,2.7c0.7,0.8 1.7,1.4 2.7,1.9c-1.1,-0.3 -2.1,-0.8 -3,-1.5c-0.9,-0.7 -1.6,-1.7 -2,-2.9c-0.8,-2.3 -0.4,-4.7 0.1,-6.9c1.1,-4.4 3,-8.5 3.7,-12.7c0.9,-4.1 -0.6,-8.3 -2.8,-12c-2.4,-3.7 -5.3,-7 -8.5,-10.2Z" style="fill-rule:nonzero;"/></g></g><g id="Body"><path d="M255.6,358.2c0,0 -91.7,-15.1 -90,121.8l276.3,0c0,0 35.4,-116.5 -61,-118.5l-44.2,-7.8l-69.6,-2.6c-0.1,0 -4.8,9.6 -11.5,7.1Z" style="fill:#fecc97;fill-rule:nonzero;stroke:#000;stroke-width:2px;"/><path d="M220.7,480c-8.9,-38.8 7.8,-60.3 7.8,-60.3c11.8,-25.3 7.8,-59.9 7.8,-59.9c0,0 13.1,-3.4 22.4,-1.2c0,0 5.8,-2.1 8.4,-7.4c2.6,-5.3 0,0 0,0c0,0 22.4,30 34,29.9c11.6,-0.1 35.8,-24.8 35.8,-24.8l44,5.3c0,0 -4,34.6 7.8,59.9c0,0 18.2,18.1 9.3,57l-177.3,1.5Z" style="fill:#29aebd;fill-rule:nonzero;stroke:#000;stroke-width:2px;"/><path d="M351.9,455.9c0,-26.2 -21.2,-47.4 -47.4,-47.4c-26.2,0 -47.4,21.2 -47.4,47.4c0,26.2 21.2,47.4 47.4,47.4c26.2,0 47.4,-21.2 47.4,-47.4Z" style="fill:#ee4d9b;fill-rule:nonzero;stroke:#000;stroke-width:2px;"/></g><g id="Hair"><path d="M265.4,343.8c0,0 -79.3,-57.4 -59.1,-143.4c0,0 84.4,-83.5 182.2,-5.9c0,0 37.7,47.2 -12.4,131.6c0,0 1.9,20.2 -4.7,35.4c0,0 5.9,13.5 -4.5,23.6c0,0 9.4,6.8 -4.8,27c0,0 9.1,6.8 0,18.6c0,0 9.1,5.1 0,11.8c0,0 10,5.1 -1.2,20.2c0,0 -10,-10.6 -3.1,-20.2c0,0 -9.4,-5.1 -4.3,-13.5c0,0 -6.8,-6.8 -1.7,-18.6c0,0 -7.8,-10.1 -3.1,-15.2c0,0 -18.9,-10.1 -5.4,-33.8c0,0 -15.2,-6.7 -8.4,-33.7c0,0 50.3,-67.5 41.2,-135c0,0 -140.8,-1.7 -144.1,0c-3.4,1.7 -10.1,99.6 35.4,135l-2,16.1Z" style="fill:#ffe306;fill-rule:nonzero;stroke:#000;stroke-width:2px;"/><path d="M353.6,429c0,0 -0.1,1.5 3.5,2.7c0,0 1.1,2.1 5.4,-1.3" style="fill:#ffe306;fill-rule:nonzero;stroke:#000;stroke-width:2px;"/><g><path d="M343.5,361.5c0,0 10.5,10 16.7,13.4c6.2,3.4 5.9,10.4 5.9,10.4" style="fill:#ffe306;fill-rule:nonzero;"/><path d="M343.5,361.5c2.3,1.6 4.6,3.4 6.8,5.1c2.2,1.7 4.4,3.5 6.7,5.1c1.1,0.8 2.3,1.6 3.4,2.3c1.3,0.8 2.5,1.7 3.4,3c1.8,2.4 2.6,5.5 2.2,8.3c-0.4,-2.8 -1.6,-5.4 -3.4,-7.3c-0.9,-1 -1.9,-1.7 -3.1,-2.3c-1.3,-0.7 -2.5,-1.5 -3.7,-2.3c-2.3,-1.7 -4.5,-3.5 -6.6,-5.5c-2,-2.1 -4,-4.1 -5.7,-6.4Z" style="fill-rule:nonzero;"/></g><path d="M367.6,385.7c0,0 -2.3,6.9 -11,12.1" style="fill:#ffe306;fill-rule:nonzero;stroke:#000;stroke-width:2px;"/><g><path d="M362.2,359.8c-1.5,-30.4 14.2,-30.3 14.2,-30.3" style="fill:#ffe306;fill-rule:nonzero;"/><path d="M362.2,359.8c-0.2,-1.5 -0.4,-3.1 -0.6,-4.6c-0.1,-1.5 -0.1,-3.1 -0.1,-4.7c0,-0.8 0.1,-1.6 0.2,-2.3l0.3,-2.3c0.1,-0.8 0.3,-1.5 0.5,-2.3c0.2,-0.8 0.3,-1.5 0.6,-2.3c0.9,-3 2.5,-5.9 4.8,-8.2c0.3,-0.3 0.6,-0.6 0.9,-0.8l0.9,-0.8c0.3,-0.2 0.7,-0.4 1,-0.6l0.5,-0.3l0.6,-0.2c1.5,-0.6 3,-1 4.6,-0.9c-1.5,0.3 -2.9,0.9 -4.1,1.8l-0.5,0.3l-0.4,0.3c-0.3,0.2 -0.6,0.5 -0.9,0.7c-0.5,0.6 -1.1,1 -1.5,1.6c-0.9,1.1 -1.7,2.4 -2.4,3.7c-0.3,0.7 -0.6,1.3 -0.9,2l-0.7,2.1c-0.3,0.7 -0.4,1.4 -0.6,2.1c-0.2,0.7 -0.4,1.4 -0.5,2.2c-0.2,1.5 -0.6,3 -0.7,4.5c-0.1,0.8 -0.2,1.5 -0.3,2.3c-0.1,0.8 -0.2,1.5 -0.2,2.3c-0.2,1.4 -0.3,2.9 -0.5,4.4Z" style="fill-rule:nonzero;"/></g><path d="M371.5,361.5c0,0 -6,9.4 -11.1,12.8" style="fill:#ffe306;fill-rule:nonzero;stroke:#000;stroke-width:2px;"/><g><path d="M352.7,337.9c0,0 8.9,8.4 10,20.2" style="fill:#ffe306;fill-rule:nonzero;"/><path d="M352.7,337.9c1.7,1.1 3.1,2.4 4.3,3.9c1.3,1.5 2.3,3.2 3.2,4.9c0.9,1.7 1.6,3.6 2,5.5c0.5,1.9 0.6,3.9 0.4,5.9c-0.6,-1.9 -1.1,-3.7 -1.9,-5.4c-0.7,-1.7 -1.4,-3.4 -2.3,-5.1c-0.8,-1.7 -1.7,-3.3 -2.7,-4.9c-0.9,-1.6 -1.9,-3.2 -3,-4.8Z" style="fill-rule:nonzero;"/></g><g><path d="M348.3,394.9c0,0 11.6,0.8 13.3,10.3" style="fill:#ffe306;fill-rule:nonzero;"/><path d="M348.3,394.9c1.5,-0.3 3.1,-0.1 4.7,0.2c1.5,0.4 3,1 4.4,1.9c1.3,0.9 2.5,2.2 3.2,3.6c0.8,1.4 1.1,3.1 1,4.6c-0.8,-1.4 -1.4,-2.7 -2.3,-3.7c-0.9,-1.1 -1.9,-2 -3.1,-2.8c-2.4,-1.6 -5,-2.7 -7.9,-3.8Z" style="fill-rule:nonzero;"/></g><g><path d="M373,276.9c0,0 -3.8,37.8 -12,42.9" style="fill:#ffe306;fill-rule:nonzero;"/><path d="M373,276.9c0,3.8 -0.3,7.6 -0.7,11.3c-0.4,3.8 -1,7.5 -1.8,11.2c-0.8,3.7 -1.8,7.4 -3.1,11c-0.7,1.8 -1.5,3.5 -2.4,5.2c-1,1.6 -2.2,3.3 -3.9,4.2c1.4,-1.2 2.3,-2.9 3,-4.6c0.7,-1.7 1.3,-3.5 1.8,-5.3c0.5,-1.8 1,-3.6 1.4,-5.4c0.4,-1.8 0.9,-3.6 1.2,-5.5c0.8,-3.7 1.5,-7.4 2.2,-11c0.8,-3.7 1.5,-7.4 2.3,-11.1Z" style="fill-rule:nonzero;"/></g><g><path d="M362.2,202.8c0,0 17.4,35.3 17.7,45.1c0.3,9.8 4.7,27.8 -9.8,66.1" style="fill:#ffe306;fill-rule:nonzero;"/><path d="M362.2,202.8c4.6,8.5 8.9,17.2 12.7,26.2c1.9,4.5 3.7,9 5,13.7c0.2,0.6 0.3,1.2 0.4,1.8c0.1,0.6 0.3,1.2 0.3,1.9c0.1,0.6 0.2,1.3 0.2,1.9l0.1,1.8c0.2,2.4 0.4,4.8 0.6,7.2c0.6,9.8 -0.3,19.6 -2.4,29.1c-2.1,9.5 -5.2,18.7 -9,27.7c3.1,-9.2 5.7,-18.5 7.5,-28c0.5,-2.4 0.8,-4.7 1.2,-7.1c0.3,-2.4 0.6,-4.8 0.7,-7.2c0.4,-4.8 0.4,-9.6 0.1,-14.4c-0.1,-2.4 -0.3,-4.8 -0.5,-7.2l-0.1,-1.8c0,-0.6 -0.1,-1.1 -0.2,-1.7c0,-0.6 -0.2,-1.1 -0.3,-1.7c-0.1,-0.6 -0.2,-1.1 -0.4,-1.7c-1.2,-4.6 -3,-9.1 -4.7,-13.6c-1.8,-4.5 -3.6,-9 -5.5,-13.4c-1.8,-4.6 -3.7,-9 -5.7,-13.5Z" style="fill-rule:nonzero;"/></g><g><path d="M211.4,230.5c0,0 -2.2,14.8 1.6,20.7" style="fill:#ffe306;fill-rule:nonzero;"/><path d="M211.4,230.5c0.2,1.8 0.2,3.5 0.3,5.3l0.1,5.2c0,1.7 0.1,3.4 0.3,5.1c0.2,1.7 0.4,3.4 0.9,5.1c-1.3,-1.3 -2,-3.1 -2.5,-4.8c-0.5,-1.8 -0.7,-3.6 -0.7,-5.3c-0.1,-1.8 0.1,-3.6 0.3,-5.3c0.3,-1.9 0.6,-3.6 1.3,-5.3Z" style="fill-rule:nonzero;"/></g><g><path d="M217.3,270.2l6.9,16.2" style="fill:#ffe306;fill-rule:nonzero;"/><path d="M217.3,270.2c1,1.2 1.7,2.5 2.4,3.7c0.7,1.3 1.3,2.6 1.9,4c0.6,1.3 1.1,2.7 1.5,4.1c0.4,1.4 0.8,2.8 1,4.4c-1,-1.2 -1.7,-2.5 -2.4,-3.7c-0.7,-1.3 -1.3,-2.6 -1.9,-4c-0.6,-1.3 -1.1,-2.7 -1.5,-4.1c-0.4,-1.5 -0.8,-2.9 -1,-4.4Z" style="fill-rule:nonzero;"/></g><g><path d="M235.7,289.4c0,0 5.1,28 19.9,31.1" style="fill:#ffe306;fill-rule:nonzero;"/><path d="M235.7,289.4c1,3.1 2.1,6.1 3.2,9.1c1.2,3 2.4,5.9 3.9,8.7c1.4,2.8 3.1,5.5 5.2,7.9c2.1,2.4 4.6,4.3 7.7,5.4c-3.3,-0.3 -6.4,-2 -8.8,-4.3c-1.2,-1.1 -2.3,-2.4 -3.3,-3.8c-1,-1.4 -1.8,-2.8 -2.6,-4.2c-1.5,-2.9 -2.7,-6 -3.6,-9.1c-0.9,-3.2 -1.5,-6.5 -1.7,-9.7Z" style="fill-rule:nonzero;"/></g><g><path d="M220.7,239.1c0,0 0.8,32.2 14.9,43.8" style="fill:#ffe306;fill-rule:nonzero;"/><path d="M220.7,239.1c0.6,3.9 1.2,7.8 1.9,11.7c0.7,3.9 1.6,7.7 2.6,11.4c0.5,1.9 1.1,3.7 1.8,5.6c0.6,1.8 1.4,3.6 2.2,5.4c1.6,3.5 3.7,6.8 6.5,9.7c-3.3,-2.2 -5.9,-5.5 -7.8,-9c-2,-3.5 -3.4,-7.3 -4.5,-11.1c-1.1,-3.9 -1.8,-7.8 -2.2,-11.7c-0.5,-4.1 -0.7,-8.1 -0.5,-12Z" style="fill-rule:nonzero;"/></g><path d="M376.2,202.8l0,17.1" style="fill:#ffe306;fill-rule:nonzero;stroke:#000;stroke-width:1px;"/><g><path d="M388.1,213.5c0,0 15.6,75.9 -13.5,106.3" style="fill:#ffe306;fill-rule:nonzero;"/><path d="M388.1,213.5c2.1,9 3.5,18.1 4.3,27.3c0.4,4.6 0.7,9.2 0.8,13.8c0.1,4.6 0,9.3 -0.2,13.9c-0.3,4.6 -0.8,9.2 -1.5,13.8c-0.8,4.6 -1.8,9.1 -3.1,13.6c-2.7,8.9 -7.1,17.4 -13.7,23.9c3,-3.5 5.5,-7.4 7.5,-11.5c2,-4.1 3.6,-8.4 4.8,-12.8c2.4,-8.8 3.6,-17.9 4.1,-27.1c0.5,-9.1 0.4,-18.3 -0.1,-27.5c-0.3,-4.6 -0.6,-9.2 -1.1,-13.7c-0.5,-4.6 -1.1,-9.1 -1.8,-13.7Z" style="fill-rule:nonzero;"/></g><g><path d="M367,274.8c0,0 -3.9,39.9 -18.2,47.5" style="fill:#ffe306;fill-rule:nonzero;"/><path d="M367,274.8c-0.1,4.4 -0.5,8.7 -1.2,13.1c-0.7,4.3 -1.6,8.6 -2.9,12.8c-1.3,4.2 -2.8,8.4 -5,12.2c-1.1,1.9 -2.3,3.8 -3.8,5.5c-1.5,1.6 -3.2,3.1 -5.3,4c3.6,-2.5 5.8,-6.3 7.7,-10.1c0.9,-1.9 1.7,-3.9 2.5,-5.9c0.7,-2 1.4,-4.1 2,-6.1c1.3,-4.1 2.3,-8.3 3.3,-12.6c0.9,-4.4 1.8,-8.7 2.7,-12.9Z" style="fill-rule:nonzero;"/></g><path d="M351.9,410.5c0,0 3.7,8.4 10.3,2.8" style="fill:#ffe306;fill-rule:nonzero;stroke:#000;stroke-width:2px;"/></g><g id="Face"><path d="M267,326.4l0,24.7c0,0 24.3,33.8 36.1,29.5c11.8,-4.2 33.8,-24.5 33.8,-24.5l-2.5,-29.8" style="fill:#fecc97;fill-rule:nonzero;stroke:#000;stroke-width:2px;"/><path d="M228.6,200.1c0,0 -3.5,130.1 71.6,143l0.8,-0.2c75.2,-12.8 75.9,-142.8 75.9,-142.8" style="fill:#fecc97;stroke:#000;stroke-width:2px;"/><path d="M239.9,221.9c0,0 4.1,36.5 46.2,26.1l0.8,-0.7c0,0 -3.5,-14.1 -18.9,-21.2c0,0 -11,-8.5 -32.5,-5.5" style="fill:#fff;stroke:#000;stroke-width:3px;"/><path d="M256,221.2c0,0 -3.2,11.9 8.3,16.6c11.5,4.7 13,-5.4 13,-5.4l-10.2,-6.8l-11.1,-4.4" style="fill:#29aebd;fill-rule:nonzero;stroke:#000;stroke-width:1px;"/><path d="M262.3,223.1c0,0 -1.8,6 0.4,7.2c0,0 0.7,1.3 5.3,3c0,0 2.8,1.1 4.5,-4.2l-10.2,-6" style="fill-rule:nonzero;"/><path d="M360.9,221.9c0,0 -4.1,36.5 -46.2,26.1l-0.8,-0.7c0,0 3.5,-14.1 18.9,-21.2c0,0 11,-8.5 32.5,-5.5" style="fill:#fff;stroke:#000;stroke-width:3px;"/><path d="M344.8,221.2c0,0 3.2,11.9 -8.3,16.6c-11.6,4.7 -13,-5.4 -13,-5.4l10.2,-6.8l11.1,-4.4" style="fill:#29aebd;fill-rule:nonzero;stroke:#000;stroke-width:1px;"/><path d="M338.5,223.1c0,0 1.8,6 -0.4,7.2c0,0 -0.7,1.3 -5.3,3c0,0 -2.8,1.1 -4.5,-4.2l10.2,-6" style="fill-rule:nonzero;"/><g id="Freckles"><path d="M333.8,272c0,0.3 -0.3,0.6 -0.6,0.6c-0.3,0 -0.6,-0.3 -0.6,-0.6c0,-0.3 0.3,-0.6 0.6,-0.6c0.3,0 0.6,0.2 0.6,0.6Z" style="fill-rule:nonzero;"/><path d="M339.2,278.2c0,0.3 -0.3,0.6 -0.6,0.6c-0.3,0 -0.6,-0.3 -0.6,-0.6c0,-0.3 0.3,-0.6 0.6,-0.6c0.3,0 0.6,0.2 0.6,0.6Z" style="fill-rule:nonzero;"/><path d="M348.8,273.7c0,0.3 -0.3,0.6 -0.6,0.6c-0.3,0 -0.6,-0.3 -0.6,-0.6c0,-0.3 0.3,-0.6 0.6,-0.6c0.4,0 0.6,0.3 0.6,0.6Z" style="fill-rule:nonzero;"/><path d="M341.5,267.9c0,0.3 -0.3,0.6 -0.6,0.6c-0.3,0 -0.6,-0.3 -0.6,-0.6c0,-0.3 0.3,-0.6 0.6,-0.6c0.3,0 0.6,0.3 0.6,0.6Z" style="fill-rule:nonzero;"/><circle cx="350.4" cy="267.3" r="0.6"/><path d="M254.5,272c0,0.3 -0.3,0.6 -0.6,0.6c-0.3,0 -0.6,-0.3 -0.6,-0.6c0,-0.3 0.3,-0.6 0.6,-0.6c0.3,0 0.6,0.2 0.6,0.6Z" style="fill-rule:nonzero;"/><path d="M259.9,278.2c0,0.3 -0.3,0.6 -0.6,0.6c-0.3,0 -0.6,-0.3 -0.6,-0.6c0,-0.3 0.3,-0.6 0.6,-0.6c0.3,-0.1 0.6,0.2 0.6,0.6Z" style="fill-rule:nonzero;"/><path d="M269.5,273.7c0,0.3 -0.3,0.6 -0.6,0.6c-0.3,0 -0.6,-0.3 -0.6,-0.6c0,-0.3 0.3,-0.6 0.6,-0.6c0.3,0 0.6,0.3 0.6,0.6Z" style="fill-rule:nonzero;"/><path d="M262.1,267.9c0,0.3 -0.3,0.6 -0.6,0.6c-0.3,0 -0.6,-0.3 -0.6,-0.6c0,-0.3 0.3,-0.6 0.6,-0.6c0.4,0 0.6,0.3 0.6,0.6Z" style="fill-rule:nonzero;"/><path d="M271.7,267.3c0,0.3 -0.3,0.6 -0.6,0.6c-0.3,0 -0.6,-0.3 -0.6,-0.6c0,-0.3 0.3,-0.6 0.6,-0.6c0.3,0 0.6,0.2 0.6,0.6Z" style="fill-rule:nonzero;"/></g><path d="M283.8,282.9c0,0 -8.2,6.4 1.3,8.3" style="fill:none;stroke:#000;stroke-width:2px;"/><path d="M314.8,307.3l0.4,-0.2c0,0 -14,28.8 -34.6,1.8l2.2,0" style="fill:#f7a497;fill-rule:nonzero;stroke:#000;stroke-width:2px;"/><path d="M281.2,308.8l0.1,-0.1l6.5,-3c0,0 1.1,-0.6 2.7,-0.1c1.5,0.5 5.1,1.9 5.1,1.9c0,0 2.5,1.2 5.8,0c3.3,-1.2 5.7,-2.1 5.7,-2.1c0,0 1.2,-0.5 2.6,0c1.4,0.5 4.1,1.8 4.1,1.8l0.7,0.3l0.4,0.2c-0.1,0 -15,8.9 -33.7,1.1Z" style="fill:#f7a497;fill-rule:nonzero;stroke:#000;stroke-width:2px;"/><path d="M314.4,307.5c0,0 4,-0.8 5.9,-3.1" style="fill:none;stroke:#000;stroke-width:1px;"/><path d="M318.5,301.2c0,0 0,4.1 4.8,4.8" style="fill:none;stroke:#000;stroke-width:1px;"/><path d="M288.2,232.2c0,0 -24.7,-22.8 -35.4,-22.1c0,0 -7.6,-4.4 -17.1,1.9l0,-1.9c0,0 13.9,-6.3 29.1,1.3c15.2,7.6 23.4,14.6 23.4,14.6c0,0 3.2,2.5 2.5,4.4c-0.6,1.8 -2.5,1.8 -2.5,1.8Z" style="fill-rule:nonzero;"/><path d="M312.7,232.2c0,0 24.7,-22.8 35.4,-22.1c0,0 7.6,-4.4 17.1,1.9l0,-1.9c0,0 -13.9,-6.3 -29.1,1.3c-15.2,7.6 -23.4,14.6 -23.4,14.6c0,0 -3.2,2.5 -2.5,4.4c0.6,1.8 2.5,1.8 2.5,1.8Z" style="fill-rule:nonzero;"/><path d="M307.5,254.7c0,0 -3.8,16.5 -1.3,20.3c2.5,3.8 5.1,6.3 5.7,9.2c0.6,2.8 1.3,5.4 -2.8,7c0,0 -4.1,-1.6 -3.8,-3.5c0,0 -10.4,6.3 -11.7,4.1c0,0 -4.1,0.3 -8.8,-5.7" style="fill:none;stroke:#000;stroke-width:2px;"/></g><g id="Helmet"><path d="M391.1,194.5c0,0 0,-0.5 0,-1.4c0,-12.2 -3.3,-100.4 -91.9,-100.4c-95.2,0 -93.2,105.7 -93.2,105.7c0,0 123.1,12.4 185.1,-4.4" style="fill:#ee4d9b;fill-rule:nonzero;stroke:#000;stroke-width:2px;"/><path d="M206.1,193.9c0,0 -5.9,-1.7 -5.1,4.2c0,0 8.7,12.8 97.6,11.3c89.2,-1.6 82.1,-10 99,-15.7c0,0 2,-2.5 -3.9,-3.3c-5.9,-0.8 -58.6,15 -95.1,11.8c0,0 -35,2.2 -92.5,-8.3Z" style="fill-rule:nonzero;"/><path d="M208,198.3l7.6,0l17.3,55l7.4,26.5l-32.3,-81.5Z" style="fill-rule:nonzero;"/><path d="M393.7,193.1l-8.5,2.5l-15.9,60.7l-7.4,26.6l31.8,-89.8Z" style="fill-rule:nonzero;"/><path d="M372.3,127.8l-0.9,11.3l-16.4,1.9l12.3,14.9l-3.7,31.3l23.6,-25.1c0,0 -9,-30.2 -14.9,-34.3" style="fill:#29aebd;fill-rule:nonzero;stroke:#000;stroke-width:1px;"/><path d="M230.6,122.7l-2.8,18l22.5,3.5l-20.9,14.2l-0.3,26.9l-17.1,-25.6c-0.1,-0.1 10.6,-31.6 18.6,-37" style="fill:#29aebd;fill-rule:nonzero;stroke:#000;stroke-width:1px;"/><path d="M288.6,134.9c0,3.9 -3.9,7.1 -8.7,7.1c-4.8,0 -8.7,-3.2 -8.7,-7.1c0,-3.9 3.9,-7.1 8.7,-7.1c4.8,0 8.7,3.2 8.7,7.1Z" style="fill-rule:nonzero;stroke:#000;stroke-width:1px;"/><path d="M330.8,134.9c0,3.9 -3.9,7.1 -8.7,7.1c-4.8,0 -8.7,-3.2 -8.7,-7.1c0,-3.9 3.9,-7.1 8.7,-7.1c4.8,0 8.7,3.2 8.7,7.1Z" style="fill-rule:nonzero;stroke:#000;stroke-width:1px;"/></g><path id="Circle" d="M298,10c-156.6,0 -283.5,126.9 -283.5,283.5c0,156.5 126.9,283.5 283.5,283.5c156.6,0 283.5,-126.9 283.5,-283.5c0,-156.6 -126.9,-283.5 -283.5,-283.5Zm-0.1,505.2c-122.5,0 -221.8,-99.3 -221.8,-221.8c0,-122.5 99.3,-221.8 221.8,-221.8c122.5,0 221.8,99.4 221.8,221.9c0,122.4 -99.3,221.7 -221.8,221.7Z" style="fill:#fff;fill-rule:nonzero;stroke:#000;stroke-width:3px;"/><g id="Plate"><rect x="49.7" y="453.1" width="504" height="100.3" style="fill:#fff;stroke:#000;stroke-width:4px;"/><path d="M488.7,477.5c0,3.3 -2.7,5.9 -5.9,5.9c-3.3,0 -5.9,-2.7 -5.9,-5.9c0,-3.3 2.7,-5.9 5.9,-5.9c3.3,0 5.9,2.6 5.9,5.9Z" style="fill:none;stroke:#000;stroke-width:2px;"/><g><rect x="160" y="465" width="2.8" height="28.2" style="fill-rule:nonzero;stroke:#000;stroke-width:1px;"/><path d="M185,480.1c-1.6,1.7 -3.5,2.5 -5.8,2.5l7.9,10.5l-3.5,0l-9.5,-12.8l2.3,0c2.3,0 4.2,-0.5 5.7,-1.4c1.7,-1.1 2.6,-2.7 2.6,-4.9c0,-2.1 -0.8,-3.6 -2.4,-4.9c-1.4,-1.1 -3.2,-1.6 -5.3,-1.6l-5.6,0l0,25.6l-2.8,0l0,-28.1l7.5,0c3.4,0 6,0.7 8,2c2.3,1.6 3.5,3.9 3.5,7.1c-0.2,2.3 -1,4.3 -2.6,6Z" style="fill-rule:nonzero;stroke:#000;stroke-width:1px;"/><path d="M215.1,489.6c-3,2.8 -6.5,4.1 -10.6,4.1c-4,0 -7.5,-1.5 -10.2,-4.4c-2.7,-2.9 -4.1,-6.4 -4.1,-10.5c0,-3.9 1.4,-7.3 4.3,-10.1c2.9,-2.8 6.3,-4.2 10.2,-4.2c4.2,0 7.7,1.4 10.6,4.3c2.8,2.8 4.3,6.4 4.3,10.6c0,4 -1.5,7.4 -4.5,10.2Zm-1.8,-18.8c-2.3,-2.4 -5.1,-3.5 -8.5,-3.5c-3.1,0 -5.8,1.1 -8.2,3.4c-2.4,2.3 -3.7,5 -3.7,8.1c0,3.5 1.1,6.4 3.3,8.7c2.2,2.3 5,3.5 8.5,3.5c3.5,0 6.3,-1.1 8.6,-3.2c2.3,-2.1 3.5,-4.9 3.5,-8.3c0,-3.5 -1.2,-6.4 -3.5,-8.7Z" style="fill-rule:nonzero;stroke:#000;stroke-width:1px;"/><path d="M246.2,493.2l-2.8,0l-16.5,-24.7l0,24.7l-2.8,0l0,-28.2l3.8,0l15.6,23.3l0,-23.3l2.8,0l0,28.2l-0.1,0Z" style="fill-rule:nonzero;stroke:#000;stroke-width:1px;"/><path d="M291.3,493.2l-2.8,0l0,-25l-10.5,25l-2.4,0l-10.4,-25l0,25l-2.8,0l0,-28.2l4.3,0l10.2,24l10.1,-24l4.3,0l0,28.2Z" style="fill-rule:nonzero;stroke:#000;stroke-width:1px;"/><path d="M320.7,489.6c-3,2.8 -6.5,4.1 -10.6,4.1c-4,0 -7.5,-1.5 -10.2,-4.4c-2.7,-2.9 -4.1,-6.4 -4.1,-10.5c0,-3.9 1.4,-7.3 4.3,-10.1c2.9,-2.8 6.3,-4.2 10.2,-4.2c4.2,0 7.7,1.4 10.6,4.3c2.8,2.8 4.3,6.4 4.3,10.6c0,4 -1.5,7.4 -4.5,10.2Zm-1.7,-18.8c-2.3,-2.4 -5.1,-3.5 -8.5,-3.5c-3.1,0 -5.8,1.1 -8.2,3.4c-2.4,2.3 -3.7,5 -3.7,8.1c0,3.5 1.1,6.4 3.3,8.7c2.2,2.3 5,3.5 8.5,3.5c3.5,0 6.3,-1.1 8.6,-3.2c2.3,-2.1 3.5,-4.9 3.5,-8.3c0,-3.5 -1.2,-6.4 -3.5,-8.7Z" style="fill-rule:nonzero;stroke:#000;stroke-width:1px;"/><path d="M348.7,482.9c0,3 -0.8,5.5 -2.4,7.5c-1.7,2.1 -4.1,3.2 -7.1,3.2c-2.8,0 -5.1,-0.9 -6.9,-2.8c-1.7,-1.8 -2.6,-4.2 -2.6,-7l0,-18.8l2.8,0l0,18.6c0,2.1 0.6,3.8 1.7,5.2c1.2,1.5 2.9,2.2 4.9,2.2c2.1,0 3.8,-0.8 5,-2.5c1.1,-1.5 1.7,-3.3 1.7,-5.6l0,-18l2.8,0l0,18l0.1,0Z" style="fill-rule:nonzero;stroke:#000;stroke-width:1px;"/><path d="M376.5,493.2l-2.8,0l-16.5,-24.7l0,24.7l-2.8,0l0,-28.2l3.8,0l15.6,23.3l0,-23.3l2.8,0l0,28.2l-0.1,0Z" style="fill-rule:nonzero;stroke:#000;stroke-width:1px;"/><path d="M395.1,467.5l-6.3,0l0,25.7l-2.8,0l0,-25.7l-6.4,0l0,-2.5l15.5,0l0,2.5Z" style="fill-rule:nonzero;stroke:#000;stroke-width:1px;"/><path d="M422.9,493.2l-3,0l-4.1,-9.4l-12.9,0l-4,9.4l-3,0l12,-28.1l3.1,0l11.9,28.1Zm-8.2,-12.1l-5.4,-12.8l-5.4,12.8l10.8,0Z" style="fill-rule:nonzero;stroke:#000;stroke-width:1px;"/><rect x="426.1" y="465" width="2.8" height="28.2" style="fill-rule:nonzero;stroke:#000;stroke-width:1px;"/><path d="M456.8,493.2l-2.8,0l-16.5,-24.7l0,24.7l-2.8,0l0,-28.2l3.8,0l15.6,23.3l0,-23.3l2.8,0l0,28.2l-0.1,0Z" style="fill-rule:nonzero;stroke:#000;stroke-width:1px;"/></g><g><path d="M123.5,541.5c-0.2,0 -2.6,-1.5 -7.3,-4.5l-8,-5.1c-0.2,-0.1 -0.3,-0.3 -0.3,-0.5c0,-0.4 0.4,-0.7 1.2,-0.7c0.5,0 1.4,0.1 1.6,0.1c6.3,0 9.4,-2.3 9.4,-7c0,-2.5 -0.8,-4.4 -2.5,-5.7c-1.5,-1.1 -3.5,-1.7 -6.1,-1.7l-8,0l0,24.3c0,0.3 -0.2,0.5 -0.6,0.5c-0.3,0 -0.5,-0.2 -0.5,-0.5l0,-24.3c0,-0.7 0.3,-1 1.1,-1l8,0c3.1,0 5.5,0.6 7.1,1.7c1.8,1.4 2.7,3.5 2.7,6.6c0,2.8 -0.9,4.9 -2.8,6.2c-1.6,1.2 -3.8,1.8 -6.7,1.8c-0.9,0 -1.4,0 -1.7,-0.1l13.4,8.6c0.2,0.1 0.3,0.3 0.3,0.6c0.2,0.5 0.1,0.7 -0.3,0.7Z" style="fill-rule:nonzero;stroke:#000;stroke-width:1px;"/><path d="M159.8,537.9c-2.6,2.6 -5.7,3.8 -9.5,3.8c-3.7,0 -6.9,-1.3 -9.5,-3.9c-2.6,-2.6 -3.9,-5.7 -3.9,-9.5c0,-3.6 1.3,-6.8 4,-9.4c2.6,-2.6 5.8,-4 9.4,-4c3.7,0 6.9,1.3 9.5,3.9c2.6,2.6 3.9,5.7 3.9,9.4c0,3.9 -1.3,7.1 -3.9,9.7Zm-0.8,-18.2c-2.4,-2.4 -5.2,-3.6 -8.7,-3.6c-3.4,0 -6.2,1.2 -8.7,3.6c-2.4,2.4 -3.6,5.3 -3.6,8.7c0,3.4 1.2,6.2 3.6,8.7c2.4,2.4 5.3,3.6 8.7,3.6c3.4,0 6.3,-1.2 8.7,-3.6c2.4,-2.4 3.6,-5.3 3.6,-8.7c-0.1,-3.4 -1.3,-6.4 -3.6,-8.7Z" style="fill-rule:nonzero;stroke:#000;stroke-width:1px;"/><path d="M196.1,541.3l-16.3,0c-0.7,0 -1.1,-0.3 -1.1,-1l0,-24.3c0,-0.3 0.2,-0.5 0.5,-0.5c0.4,0 0.6,0.2 0.6,0.5l0,24.3l16.2,0c0.4,0 0.6,0.2 0.6,0.6c0.1,0.3 -0.1,0.4 -0.5,0.4Z" style="fill-rule:nonzero;stroke:#000;stroke-width:1px;"/><path d="M228.4,541.3l-16.3,0c-0.7,0 -1.1,-0.3 -1.1,-1l0,-24.3c0,-0.3 0.2,-0.5 0.5,-0.5c0.4,0 0.6,0.2 0.6,0.5l0,24.3l16.2,0c0.4,0 0.6,0.2 0.6,0.6c0.1,0.3 -0.1,0.4 -0.5,0.4Z" style="fill-rule:nonzero;stroke:#000;stroke-width:1px;"/><path d="M262.8,516.3c-0.1,0.1 -0.2,0.2 -0.3,0.2l-17.5,0l0,16.1l17,0c0.3,0 0.5,0.2 0.5,0.5c0,0.3 -0.2,0.5 -0.5,0.5l-17,0l0,6.8l16.6,0c0.3,0 0.5,0.2 0.5,0.5c0,0.3 -0.2,0.5 -0.5,0.5l-16.6,0c-0.7,0 -1.1,-0.3 -1.1,-1l0,-6.7l-2.4,0c-0.3,0 -0.5,-0.2 -0.5,-0.5c0,-0.3 0.2,-0.5 0.5,-0.5l2.4,0l0,-16.1c0,-0.7 0.3,-1 1.1,-1l17.4,0c0.3,0 0.5,0.2 0.5,0.5c0,-0.2 0,0 -0.1,0.2Z" style="fill-rule:nonzero;stroke:#000;stroke-width:1px;"/><path d="M299.1,541.5c-0.2,0 -2.6,-1.5 -7.3,-4.5l-8,-5.1c-0.2,-0.1 -0.3,-0.3 -0.3,-0.5c0,-0.4 0.4,-0.7 1.2,-0.7c0.5,0 1.4,0.1 1.6,0.1c6.3,0 9.4,-2.3 9.4,-7c0,-2.5 -0.8,-4.4 -2.5,-5.7c-1.5,-1.1 -3.5,-1.7 -6.1,-1.7l-8,0l0,24.3c0,0.3 -0.2,0.5 -0.6,0.5c-0.3,0 -0.5,-0.2 -0.5,-0.5l0,-24.3c0,-0.7 0.3,-1 1.1,-1l8,0c3.1,0 5.5,0.6 7.1,1.7c1.8,1.4 2.7,3.5 2.7,6.6c0,2.8 -0.9,4.9 -2.8,6.2c-1.6,1.2 -3.8,1.8 -6.7,1.8c-0.9,0 -1.4,0 -1.7,-0.1l13.4,8.6c0.2,0.1 0.3,0.3 0.3,0.6c0.2,0.5 0,0.7 -0.3,0.7Z" style="fill-rule:nonzero;stroke:#000;stroke-width:1px;"/><path d="M358.4,535.9c-2.5,3.6 -6.7,5.8 -11.2,5.8c-3.5,0 -6.6,-1.3 -9.2,-4c-2.6,-2.7 -3.9,-5.8 -3.9,-9.4c0,-3.8 1.3,-6.9 3.8,-9.5c2.6,-2.6 5.7,-3.9 9.5,-3.9c2.1,0 4.1,0.5 6.1,1.5c1.7,0.9 2.6,1.5 2.6,2c0,0.4 -0.2,0.6 -0.5,0.6c-2.6,-2 -5.3,-3 -8.1,-3c-3.4,0 -6.3,1.2 -8.7,3.6c-2.4,2.4 -3.5,5.3 -3.5,8.7c0,3.3 1.2,6.1 3.6,8.6c2.4,2.4 5.2,3.7 8.5,3.7c4.8,0 9,-2.7 11.1,-7.1l-14.4,0c-0.3,0 -0.5,-0.2 -0.5,-0.5c0,-0.3 0.2,-0.5 0.5,-0.5l15.2,0c0.4,0 0.6,0.2 0.6,0.5c-0.2,0.7 -0.7,1.7 -1.5,2.9Z" style="fill-rule:nonzero;stroke:#000;stroke-width:1px;"/><path d="M376.1,540.8c0,0.3 -0.2,0.5 -0.6,0.5c-0.3,0 -0.5,-0.2 -0.5,-0.5l0,-24.8c0,-0.3 0.2,-0.5 0.5,-0.5c0.4,0 0.6,0.2 0.6,0.5l0,24.8Z" style="fill-rule:nonzero;stroke:#000;stroke-width:1px;"/><path d="M413.4,541.5c-0.2,0 -2.6,-1.5 -7.3,-4.5l-8,-5.1c-0.2,-0.1 -0.3,-0.3 -0.3,-0.5c0,-0.4 0.4,-0.7 1.2,-0.7c0.5,0 1.4,0.1 1.6,0.1c6.3,0 9.4,-2.3 9.4,-7c0,-2.5 -0.8,-4.4 -2.5,-5.7c-1.5,-1.1 -3.5,-1.7 -6.1,-1.7l-8,0l0,24.3c0,0.3 -0.2,0.5 -0.6,0.5c-0.3,0 -0.5,-0.2 -0.5,-0.5l0,-24.3c0,-0.7 0.3,-1 1.1,-1l8,0c3.1,0 5.5,0.6 7.1,1.7c1.8,1.4 2.7,3.5 2.7,6.6c0,2.8 -0.9,4.9 -2.8,6.2c-1.6,1.2 -3.8,1.8 -6.7,1.8c-0.9,0 -1.4,0 -1.7,-0.1l13.4,8.6c0.2,0.1 0.3,0.3 0.3,0.6c0.2,0.5 0,0.7 -0.3,0.7Z" style="fill-rule:nonzero;stroke:#000;stroke-width:1px;"/><path d="M445.8,541.3l-16.3,0c-0.7,0 -1.1,-0.3 -1.1,-1l0,-24.3c0,-0.3 0.2,-0.5 0.5,-0.5c0.4,0 0.6,0.2 0.6,0.5l0,24.3l16.2,0c0.4,0 0.6,0.2 0.6,0.6c0.1,0.3 -0.1,0.4 -0.5,0.4Z" style="fill-rule:nonzero;stroke:#000;stroke-width:1px;"/><path d="M479.5,520.6c-0.9,-1.6 -2.4,-2.7 -4.4,-3.5c-1.7,-0.7 -3.6,-1 -5.6,-1c-2.2,0 -4.1,0.5 -5.8,1.4c-2.1,1.1 -3.1,2.7 -3.1,4.7c0,2.7 1.6,4.5 4.7,5.3c2.9,0.5 5.9,1 8.8,1.6c3.1,0.9 4.7,2.8 4.7,5.7c0,2.2 -0.9,3.9 -2.8,5.2c-1.7,1.1 -3.6,1.7 -5.9,1.7c-1.6,0 -3.3,-0.3 -5,-0.9c-2.1,-0.7 -3.3,-1.7 -3.9,-2.9l0,-0.1c0,-0.3 0.2,-0.5 0.5,-0.5c2.4,2.2 5.2,3.3 8.3,3.3c2,0 3.6,-0.5 5.1,-1.4c1.7,-1.1 2.5,-2.6 2.5,-4.4c0,-2.4 -1.6,-4.1 -4.7,-4.9l-8.7,-1.7c-3.1,-1 -4.7,-3 -4.7,-5.9c0,-2.4 1.1,-4.3 3.4,-5.6c1.9,-1.1 4.1,-1.6 6.7,-1.6c2.5,0 5,0.6 7.3,1.9c2.3,1.2 3.5,2.3 3.5,3.3c-0.3,0.1 -0.5,0.2 -0.9,0.3Z" style="fill-rule:nonzero;stroke:#000;stroke-width:1px;"/></g><path d="M122.1,478.4c0,3.3 -2.7,5.9 -5.9,5.9c-3.3,0 -5.9,-2.7 -5.9,-5.9c0,-3.3 2.7,-5.9 5.9,-5.9c3.2,0 5.9,2.6 5.9,5.9Z" style="fill:none;stroke:#000;stroke-width:2px;"/></g><path id="path1935_2_" d="M170.3,434.1c-1.8,-0.6 -2,-0.7 -2.5,-2c-0.4,-1.2 -0.4,-1.4 -0.1,-1.5c0.2,0 2.2,-2.3 6.1,-6.7c3.2,-3.7 6.2,-7.1 6.7,-7.7c0.7,-0.8 0.9,-1.1 0.8,-1.2c-0.2,-0.4 -10.1,-9.9 -10.4,-10c-0.1,0 -0.3,0.1 -0.5,0.3c-0.4,0.5 -2.6,3.6 -3.8,5.7c-0.5,0.8 -1,1.5 -1.1,1.5c-0.1,0 -1.4,-0.9 -2.9,-2l-2.7,-2l0.3,-0.3c0.2,-0.2 0.8,-1.1 1.4,-2.1c1.8,-2.9 3.7,-5.7 4.7,-6.8c1.3,-1.5 9,-7.6 9.5,-7.6c0.1,0 0.9,0.8 2,2.1c1.2,1.5 1.9,2.2 2.2,2.3c0.2,0.1 0.3,0.2 0.3,0.2c0,0.1 -1.2,1.1 -2.7,2.2c-1.4,1.2 -3,2.5 -3.4,3c-1.2,1.2 -1.3,1.1 1.9,4c3.2,3 11.2,10.1 19.1,17c3.3,2.9 6.3,5.6 6.8,6c0.6,0.5 1,0.8 1.2,0.8c0.3,0 0.3,0 0.2,0.6c-0.1,1 -0.4,1.9 -0.9,2.3c-0.4,0.3 -1.3,0.6 -2.2,0.8l-0.5,0.1l-7.7,-7.6c-4.2,-4.2 -7.7,-7.5 -7.8,-7.5c0,0 -2.9,3.5 -6.2,7.7c-3.4,4.2 -6.4,7.8 -6.6,8.1l-0.4,0.5l-0.8,-0.2Zm15.3,-20.5l-1.5,-1.3l4.1,-4.7c3.5,-4 4.1,-4.8 4.1,-5.1c0,-0.3 -0.5,-0.7 -3.2,-3.1c-1.8,-1.5 -3.2,-2.8 -3.1,-2.8c0,-0.1 0.2,-0.1 0.3,-0.1c0.2,0 1,-0.8 2.3,-2.1c1.1,-1.2 2.1,-2.1 2.2,-2.1c0.1,0 1.4,1.2 3,2.6c3,2.7 3.2,2.9 3.7,2.3c0.1,-0.1 0.3,-0.2 0.4,-0.2c0.1,0 0.6,0.3 1.1,0.7c0.6,0.4 1,0.7 1.3,0.7l0.4,0l-0.4,0.5c-0.2,0.3 -0.4,0.6 -0.4,0.8c0,0.3 0.1,0.5 1,1.2c0.6,0.5 1.1,0.8 1.2,0.8c0.1,0 6.2,10.3 6.1,10.4c0,0 -2.2,-1 -4.8,-2.3l-4.8,-2.3l-1.5,-1.4c-0.8,-0.7 -1.5,-1.4 -1.6,-1.3c0,0 -1.9,2.3 -4.2,5.1c-2.3,2.8 -4.1,5.1 -4.1,5.1c-0.1,-0.1 -0.8,-0.7 -1.6,-1.4Z" style="fill:#010101;fill-rule:nonzero;"/><g id="Tatoo_Right_Arm"><path d="M437.2,391.8l8.6,10.9l13.8,-0.8l-7.7,11.5l5.1,12.9l-13.4,-3.8l-10.7,8.9l-0.5,-13.9l-11.7,-7.5l13,-4.7l3.5,-13.5Z" style="fill:none;stroke:#000;stroke-width:2px;"/></g></svg>